<?xml version="1.0" encoding="UTF-8"?>
<svg id="Layer_2" data-name="Layer 2" xmlns="http://www.w3.org/2000/svg" viewBox="0 0 146.35 147.23">
  <defs>
    <style>
      .cls-1 {
        fill: #fff;
        stroke-width: 0px;
      }
    </style>
  </defs>
  <g id="Layer_2-2" data-name="Layer 2">
    <g id="Layer_1-2" data-name="Layer 1-2">
      <path class="cls-1" d="M7.46,136.86c3.73-3.67,6.63-6.17,9.09-9.05,2.33-2.73,3.97-3.03,6.85-.42,27.65,25.08,66.36,26.57,95.6,3.36,16.33-12.96,24.98-30.39,27.26-51.08.44-4-.63-5.99-5.04-5.68-3.82.27-7.68.25-11.5,0-3.66-.23-4.9,1.35-5.34,4.84-3.76,29.76-27.21,48.83-57.15,46.17-12.34-1.1-22.83-6.51-31.52-16.06,4.87-5.09,9.47-9.91,14.65-15.32H7.46v43.24ZM95.14,48.73c1.27.99,1.51,1.35,1.75,1.35,8.67.07,17.34.16,26,.12,4.81-.02,11.62,1.55,13.89-.92,2.58-2.81,1.28-9.35,1.35-14.27.13-8.92.04-17.84.04-26.77-.63-.42-1.25-.84-1.88-1.27-3.61,4.91-7.23,9.81-10.84,14.72-2.7-2.24-3.59-2.95-4.47-3.68-28.78-23.75-66.14-24.13-94.96-.46C10.34,30.43,2.14,47.56.08,67.71c-.41,4.01.67,6.01,5.11,5.6,3.31-.3,6.69-.32,9.99.01,4.58.46,6.34-1.1,6.91-5.88C26.45,30.83,65.7,10.63,98,28.27c3.67,2.01,6.95,4.75,12.21,8.39-5.7,4.56-10.32,8.26-15.06,12.06h-.01Z"/>
    </g>
  </g>
</svg>