<svg xmlns="http://www.w3.org/2000/svg" id="Layer_2" data-name="Layer 2" viewBox="0 0 11.84 3.7"><defs><style>.cls-1{fill:#fff;stroke:#fff;stroke-miterlimit:10;stroke-width:.25px}</style></defs><g id="Layer_1-2" data-name="Layer 1"><path d="M7.96 3.58c-.99 0-1.75-.65-2.48-1.29C4.72 1.64 4 1.02 3.06 1.08c-.71.05-1.42.48-2.1 1.29l-.34-.34C1.38 1.13 2.19.64 3.03.58c1.13-.1 1.95.63 2.74 1.31.72.62 1.37 1.2 2.25 1.17.94-.03 1.9-.82 2.84-2.35l.39.28c-1.03 1.67-2.11 2.53-3.21 2.57h-.08Z" class="cls-1"/><path d="M10.44.45c.22-.34.66-.42.97-.19.32.24.39.71.17 1.05-.22.34-.66.42-.97.19-.32-.24-.39-.71-.17-1.05ZM.29 1.69c-.25.32-.21.79.09 1.06s.74.22.98-.09.21-.79-.09-1.06-.74-.22-.98.09Z" class="cls-1"/></g></svg>