<?xml version="1.0" encoding="UTF-8"?>
<svg id="Layer_2" data-name="Layer 2" xmlns="http://www.w3.org/2000/svg" version="1.1" viewBox="0 0 79.3 76.9">
  <defs>
    <style>
      .cls-1 {
        fill: #000;
        stroke-width: 0px;
      }
    </style>
  </defs>
  <g id="Layer_1-2" data-name="Layer 1-2">
    <path class="cls-1" d="M0,68.4c-.6-6.2,2.6-10,6.7-13.9,13-12.6,25.8-25.4,38.5-38.3,2.5-2.6,4.2-2.6,6.5,0,3.4,3.6,6.9,7.2,10.5,10.6,2.2,2.1,2.2,3.7,0,5.9-14.4,14.3-28.3,29.1-43.4,42.5-3.3,3-10.9,1.6-16.5,1.2-1,0-1.6-5.1-2.4-7.9h0ZM12.8,67.9c1.4-1.1,2.8-2,4-3.2,10.5-10.4,21.1-20.7,31.5-31.3,1.2-1.2,1.1-3.6,1.5-5.4-1.7.6-3.8.7-5,1.8-7.5,7.1-14.7,14.4-22,21.7-3.8,3.8-7.5,7.5-11.1,11.4-.8.8-.9,2.3-1,3.5,0,.4,1.2.8,2.1,1.4Z"/>
    <path class="cls-1" d="M79.3,15c-3.2,3-6.5,6.1-9.8,9-.3.2-1.8-.6-2.4-1.2-4-3.8-7.8-7.7-11.8-11.4-1.9-1.8-2-3.2-.1-4.9,1.7-1.6,2.9-3.9,4.9-4.9,2-1,5.5-2.1,6.7-1.1,4.1,3.2,7.6,7.3,11.2,11.1.5.5.3,1.6.5,2.4.3.4.6.7.9,1.1h0Z"/>
  </g>
</svg>