<svg xmlns="http://www.w3.org/2000/svg" id="Layer_2" width="240" height="238.59" data-name="Layer 2"><defs><style>.cls-1{fill:#fff}.cls-2{fill:#8a8a8a}</style></defs><g id="Camada_1" data-name="Camada 1"><path d="M209.63 189.69c5.89-2.71 11.77-5.43 18-8.31-1.13-.56-1.88-.94-2.65-1.29-14.21-6.55-28.42-13.11-42.62-19.68s-.46-.21-.46-.21c-1.3-.6-2.61-1.2-3.91-1.81l-6.01-2.85-4.4-2.07-31.85 14.71c-4.92 2.28-9.84 4.56-14.76 6.85-1.16.54-2.34 0-2.34 0-3.61-1.76-7.2-3.58-10.84-5.26-11.77-5.43-23.55-10.86-35.33-16.28l-.49.23.05.02-10.87 5.09c-3.53 1.64-7.07 3.27-10.6 4.9l-.83.39c-7.93 3.66-15.87 7.32-23.81 10.98-4.43 2.04-8.86 4.09-13.55 6.25.73.39 1.13.62 1.53.81 34.89 16.07 69.78 32.15 104.7 48.15.83.38 2.14.3 3-.08 3.53-1.56 7.03-3.19 10.53-4.81s.72-.33.72-.33c.6-.28 1.21-.56 1.81-.84l45.51-20.96c9.81-4.53 19.63-9.04 29.44-13.56Z" class="cls-2"/><path d="M209.63 126.36c5.89-2.71 11.77-5.43 18-8.31-1.13-.56-1.88-.94-2.65-1.29-15.67-7.23-31.34-14.45-46.99-21.7l-9.41-4.46-1.64.75c-.17.06-.33.13-.51.21-14.11 6.54-28.28 12.97-42.35 19.6-1.3.61-2.48.89-3.65.89s-2.36-.28-3.65-.89c-14.07-6.63-28.24-13.06-42.35-19.6-.17-.08-.34-.15-.51-.21l-1.97-.91-10.78 5.05c-11.73 5.43-23.48 10.84-35.22 16.25-4.43 2.04-8.86 4.09-13.55 6.25.73.39 1.13.62 1.53.81 34.89 16.07 69.78 32.15 104.7 48.15.83.38 2.14.3 3-.08 3.53-1.56 7.03-3.19 10.53-4.81s.72-.33.72-.33c.6-.28 1.21-.56 1.81-.84l45.51-20.96c9.81-4.53 19.63-9.04 29.44-13.56Z" class="cls-2"/><path d="M40.5 68.43c6.79 3.12 13.22 6.11 19.68 8.99l1.68.77 19.6-9.17-20.96-9.79-20 9.21ZM87.63 46.74c-6.16 2.81-12.33 5.66-18.67 8.57l20.39 9.32h.01l.89.41 21.78-9.95-21.12-9.86-3.28 1.5ZM149.1 45.23l-21.12 9.86 21.78 9.95.89-.41h.01l20.39-9.32c-6.34-2.92-12.51-5.76-18.67-8.57l-3.28-1.5ZM120 32.11c-.43 0-.93.14-1.31.32-6.36 2.89-12.7 5.83-19.55 8.99 6.2 2.87 11.94 5.39 17.55 8.19 1.17.58 2.23.95 3.3 1.02 1.07-.07 2.14-.44 3.3-1.02 5.61-2.8 11.36-5.32 17.55-8.19-6.85-3.16-13.19-6.1-19.55-8.99-.38-.17-.89-.32-1.31-.32ZM169.95 82.03l-19.94-9.22-21.62 10.09 19.91 9.23 21.65-10.1zM118.24 23.36c.51.23 1.19.46 1.76.47.57 0 1.25-.23 1.76-.47 6.12-2.77 12.22-5.56 18.32-8.37L124.92 7.9l-.51-.25c-.02 0-.04-.02-.06-.03l-.04-.02c-1.44-.65-2.87-.95-4.32-.94-1.44 0-2.88.29-4.32.94s-.04.02-.04.02c-.02 0-.04.02-.06.03l-.51.24-15.16 7.1c6.1 2.81 12.2 5.6 18.32 8.37ZM179.83 77.42c6.46-2.89 12.89-5.87 19.68-8.99l-20-9.21-20.96 9.79 19.6 9.17 1.68-.77ZM141.36 68.86c-6.99-3.22-13.86-6.41-20.76-9.54-.17-.08-.38-.11-.59-.13-.22.02-.42.05-.59.13-6.9 3.13-13.78 6.32-20.76 9.54.32.3.46.52.65.61 6.56 3.04 13.12 6.09 19.71 9.04.28.12.63.16.99.15.36.02.71-.02.99-.15 6.6-2.95 13.15-6.01 19.71-9.04.19-.09.33-.3.65-.61ZM208.71 46.72c-.09-.04-.2-.07-.31-.09l-.7-.32-19.63 9.12 19.68 9.17 20.04-9.17-3.4-1.54c-5.24-2.41-10.45-4.82-15.68-7.17ZM65.36 33.49l-2.48-1.15-21.93 9.91-.24.11 19.2 8.8 22.02-9.68-16.38-7.93c-.06-.02-.13-.04-.19-.06ZM71.37 28.3l19.23 8.96h.18l20.29-9.09-19.04-9.21-20.65 9.33ZM31.59 46.62c-.11.02-.21.05-.31.09-5.24 2.35-10.45 4.76-15.68 7.17l-3.4 1.54 20.04 9.17 19.68-9.17-19.63-9.12-.7.32ZM111.61 82.9 89.99 72.81l-19.94 9.22 21.65 10.1 19.91-9.23zM128.94 28.18l20.29 9.09h.18l19.23-8.96-20.65-9.33-19.04 9.21ZM120 104.72c.39 0 .78-.07 1.09-.21 6.09-2.73 12.15-5.55 18.51-8.49-.68-.42-1.13-.77-1.63-1-5.43-2.51-10.86-5.03-16.31-7.48-.49-.22-1.11-.44-1.66-.47-.55.04-1.18.26-1.66.47-5.46 2.45-10.88 4.97-16.31 7.48-.5.23-.95.58-1.63 1 6.37 2.93 12.42 5.75 18.51 8.49.31.14.7.21 1.09.21ZM177.12 32.34l-2.48 1.15c-.06.02-.13.04-.19.06l-16.38 7.93 22.02 9.68 19.2-8.8-.24-.11-21.93-9.91Z" class="cls-1"/><path d="m238.74 179.33.03.02c-3.38-1.71-6.72-3.53-10.15-5.12-13.14-6.09-26.29-12.14-39.45-18.19l-.19-.09c-.08-.04-.16-.07-.23-.11l-11.99-5.56c-.21-.1-.43-.21-.68-.34l-.17-.08h-.02l-.48-.21c4.72-2.17 9.44-4.34 14.15-6.51 14.69-6.76 29.39-13.52 44.07-20.3 1.75-.81 3.43-1.74 5.15-2.62.76-.56 1.23-1.3 1.23-2.11s-.48-1.57-1.26-2.13c.01.01.03.02.03.02-3.38-1.71-6.72-3.53-10.15-5.12-13.14-6.09-26.29-12.14-39.45-18.19l-.19-.09c-3.58-1.65-7.17-3.3-10.75-4.95-.54-.25-1.07-.52-1.81-.88l11.66-5.36c16.1-7.42 32.21-14.84 48.32-22.25 1.71-.79 3.23-1.68 3.19-3.85-.04-2.04-1.46-2.89-3.11-3.65-28.56-13.1-57.12-26.21-85.65-39.38-.24-.11-.48-.2-.71-.28L127.54 1.7c-.34-.16-.68-.33-1.02-.49C126.49 1.2 123.88.02 120 0c-3.89.02-6.5 1.2-6.52 1.21-.34.16-.68.33-1.02.5S89.89 12.03 89.89 12.03c-.23.08-.47.17-.71.28C60.64 25.48 32.09 38.59 3.53 51.69 1.88 52.45.46 53.3.42 55.34c-.04 2.17 1.48 3.06 3.19 3.85 16.11 7.41 32.21 14.82 48.32 22.25s11.22 5.15 11.22 5.15l-.09.04c-.72.37-1.12.6-1.54.79-1.51.7-3.03 1.39-4.54 2.09h-.02C39.05 97.75 21.14 106 3.22 114.22c-1.71.8-3.25 1.68-3.22 3.85.03 2.03 1.43 2.91 3.08 3.67 20.21 9.29 40.41 18.59 60.61 27.9l-6.74 3.22c-17.91 8.24-35.82 16.49-53.74 24.71-1.71.78-3.24 1.66-3.21 3.83.03 2.03 1.43 2.91 3.08 3.67 34.77 15.99 69.53 32 104.28 48.03 3.65 1.68 7.23 3.5 10.84 5.26 0 0 1.17.54 2.34 0 4.92-2.28 9.84-4.56 14.76-6.85s34.29-15.83 34.29-15.83c6.65-3.06 13.31-6.13 19.96-9.19 14.69-6.76 29.39-13.52 44.07-20.3 1.75-.81 3.43-1.74 5.15-2.62.76-.56 1.23-1.3 1.23-2.11s-.48-1.57-1.26-2.13ZM70.05 82.03l19.93-9.22 21.63 10.09-19.91 9.24-21.65-10.1Zm57.92-26.94 21.12-9.86 3.28 1.5c6.16 2.81 12.33 5.66 18.67 8.57l-20.39 9.32h-.01l-.89.41-21.78-9.95Zm13.38 13.78c-.32.3-.46.52-.65.61-6.56 3.04-13.11 6.09-19.71 9.04-.28.12-.63.16-.99.15-.36.02-.71-.02-.99-.15-6.6-2.95-13.15-6.01-19.71-9.04-.19-.09-.33-.3-.65-.61 6.99-3.22 13.86-6.41 20.76-9.54.17-.08.38-.11.59-.13.22.02.42.05.59.13 6.9 3.13 13.78 6.32 20.76 9.54ZM123.3 49.62c-1.17.58-2.23.95-3.3 1.02-1.07-.07-2.14-.44-3.3-1.02-5.61-2.8-11.36-5.32-17.55-8.19 6.85-3.16 13.19-6.1 19.55-8.99.38-.17.89-.32 1.31-.32.43 0 .93.14 1.31.32 6.36 2.89 12.7 5.83 19.55 8.99-6.2 2.87-11.94 5.39-17.55 8.19Zm-11.28 5.48-21.78 9.95-.89-.41h-.01l-20.39-9.32c6.34-2.92 12.51-5.76 18.67-8.57l3.28-1.5 21.12 9.86Zm-10 39.93c5.43-2.51 10.86-5.03 16.31-7.48.49-.22 1.11-.44 1.66-.47.55.04 1.18.26 1.66.47 5.46 2.45 10.88 4.97 16.31 7.48.5.23.95.58 1.63 1-6.37 2.93-12.42 5.75-18.51 8.49-.31.14-.7.21-1.09.21-.39 0-.78-.07-1.09-.21-6.09-2.73-12.15-5.55-18.51-8.49.68-.42 1.13-.77 1.63-1Zm26.36-12.12L150 72.82l19.93 9.22-21.65 10.1-19.91-9.24Zm51.44-5.48-1.68.77-19.6-9.17 20.96-9.79 20 9.21c-6.79 3.12-13.22 6.11-19.68 8.99Zm28.58-30.79c.11.02.21.05.31.09 5.24 2.35 10.45 4.76 15.68 7.17l3.4 1.54-20.04 9.17-19.68-9.17 19.63-9.12.7.32ZM174.63 33.5l2.48-1.15 21.93 9.91.24.11-19.2 8.8-22.02-9.68 16.38-7.93c.06-.02.13-.04.19-.06Zm-6.01-5.19-19.23 8.96h-.18l-20.29-9.09 19.04-9.2 20.65 9.33ZM115.08 7.9l.51-.25c.02 0 .04-.02.06-.03l.04-.02c1.44-.65 2.87-.95 4.32-.94 1.44 0 2.88.29 4.32.94s.04.02.04.02c.02 0 .04.02.06.03l.51.24 15.16 7.1c-6.1 2.81-12.2 5.6-18.32 8.37-.51.23-1.19.46-1.76.47-.57 0-1.25-.23-1.76-.47-6.12-2.77-12.22-5.56-18.32-8.37L115.1 7.9ZM92.02 18.97l19.04 9.2-20.29 9.09h-.18L71.36 28.3l20.65-9.33ZM40.96 42.25l21.93-9.91 2.48 1.15c.06.02.13.04.19.06l16.38 7.93-22.02 9.68-19.2-8.8.24-.11ZM12.2 55.43l3.4-1.54c5.24-2.41 10.45-4.82 15.68-7.17.09-.04.2-.07.31-.09l.7-.32 19.63 9.12-19.68 9.17-20.04-9.17Zm47.97 21.99c-6.46-2.89-12.89-5.87-19.68-8.99l20-9.21 20.96 9.79-19.6 9.17-1.68-.77Zm-46.69 41.37c-.41-.19-.8-.42-1.53-.81 4.69-2.16 9.12-4.21 13.55-6.25 11.74-5.41 23.49-10.81 35.22-16.25l10.78-5.05 1.97.91c.17.06.33.13.51.21 14.11 6.54 28.28 12.97 42.35 19.6 1.3.61 2.48.89 3.65.89s2.36-.28 3.65-.89c14.07-6.63 28.24-13.06 42.35-19.6.17-.08.34-.15.51-.21l1.64-.75 9.41 4.46c15.66 7.25 31.33 14.47 46.99 21.7.76.35 1.51.74 2.65 1.29-6.23 2.88-12.12 5.6-18 8.31-9.81 4.52-19.63 9.03-29.44 13.56s-45.51 20.95-45.51 20.95c-.61.28-1.21.56-1.81.84l-.72.33c-3.5 1.62-7 3.26-10.53 4.81-.86.38-2.17.46-3 .08-34.92-16.01-69.81-32.08-104.7-48.15Zm195.72 70.9c-9.81 4.52-19.63 9.03-29.44 13.56s-45.51 20.95-45.51 20.95c-.61.28-1.21.56-1.81.84l-.72.33c-3.5 1.62-7 3.26-10.53 4.81-.86.38-2.17.46-3 .08-34.92-16.01-69.81-32.08-104.7-48.15-.41-.19-.8-.42-1.53-.81 4.69-2.16 9.12-4.21 13.55-6.25 7.94-3.66 15.87-7.31 23.81-10.98l.83-.39c3.53-1.63 7.07-3.26 10.6-4.9l10.87-5.09-.05-.02.49-.23c11.78 5.43 23.55 10.85 35.33 16.28 3.65 1.68 7.23 3.5 10.84 5.26 0 0 1.17.54 2.34 0 4.92-2.28 9.84-4.56 14.76-6.85s31.85-14.7 31.85-14.7l4.4 2.07 6.01 2.85c1.3.6 2.61 1.21 3.91 1.81l.46.22c14.2 6.57 28.41 13.13 42.62 19.68.76.35 1.51.74 2.65 1.29-6.23 2.88-12.12 5.6-18 8.31Z"/></g></svg>