<svg xmlns="http://www.w3.org/2000/svg" width="6.67" height="9.66" data-name="Layer 2"><path d="M6.64 9.46c-.49-.92-.61-3.88-.62-3.91-.05-3.57.18-5.11.23-5.39 0-.04 0-.08-.03-.11A.16.16 0 0 0 6.11 0h-.42c-.07 0-.12.05-.14.11-.05.26-.26 1.65-.24 4.84a.32.32 0 0 0-.14-.03H.35c-.2 0-.35.16-.35.35v.15c0 .17.12.32.29.35v3.72c0 .09.08.17.17.17h.35c.09 0 .17-.08.17-.17V7.1h4.47c.09.92.26 2 .55 2.49.02.04.07.07.12.07h.41s.09-.02.12-.07c.02-.04.03-.09 0-.13ZM.98 6.74v-.72h4.38c.01.2.03.45.06.72H.98Z" data-name="Layer 1" style="fill:#7e7e84"/></svg>