<svg xmlns="http://www.w3.org/2000/svg" width="12.4" height="10" data-name="Layer 2"><path d="M.6 8.8c0-.4.4-.8.8-.8s.7.3.7.7v.1c.1.7.7 1.2 1.4 1.2s1.3-.6 1.4-1.2v-.1c0-.3.3-.7.7-.7s.7.3.7.7v.1c.1.7.7 1.2 1.4 1.2S9 9.5 9.1 8.9v-.1c0-.4.3-.7.7-.7s.7.3.7.7c0 .2.1.3.3.3s.3-.1.3-.3c0-.8-.6-1.4-1.4-1.4-.6 0-1.1.6-1.2 1.3v.1c0 .4-.3.7-.7.7S7 9.1 7 8.7v-.1c-.1-.7-.7-1.2-1.4-1.2S4.3 8 4.2 8.7v.1c0 .4-.3.7-.7.7s-.7-.4-.7-.8v-.1c-.2-.7-.7-1.2-1.4-1.2C.6 7.4 0 8 0 8.8c0 .2.1.3.3.3s.3-.2.3-.3Zm9-7.4v1.2H6.3V1.4c0-.4.4-.7.8-.7s.8.3.8.7c0 .2.1.3.3.3s.3-.1.3-.3C8.6.6 7.9 0 7.1 0S5.7.6 5.7 1.4v5.1c0 .2.1.3.3.3s.3-.1.3-.3V5.4h3.3v1.1c0 .2.1.3.3.3s.3-.1.3-.3V1.4c0-.4.4-.7.8-.7s.8.3.8.7c0 .2.1.3.3.3s.3-.1.3-.3C12.4.6 11.8 0 11 0S9.7.6 9.6 1.4ZM6.3 4.8V3.2h3.3v1.5H6.3v.1Z" data-name="Layer 1"/></svg>