<svg xmlns="http://www.w3.org/2000/svg" width="12.54" height="10.09" data-name="Layer 2"><g data-name="Layer 2"><path d="M.62 8.77c0-.41.33-.74.74-.74s.74.33.74.74c0 .05 0 .1.03.14.1.66.67 1.17 1.36 1.17s1.3-.55 1.37-1.24v-.06c0-.41.33-.74.74-.74s.74.33.74.74c0 .05.01.1.03.14.1.66.67 1.17 1.36 1.17s1.3-.55 1.37-1.24v-.06c0-.41.33-.74.74-.74s.74.33.74.74c0 .18.14.32.32.32s.32-.14.32-.32c0-.76-.62-1.37-1.37-1.37-.71 0-1.3.55-1.37 1.24v.06c0 .41-.33.74-.74.74S7 9.13 7 8.72c0-.05-.01-.1-.03-.14-.1-.66-.67-1.17-1.36-1.17s-1.3.55-1.37 1.24v.06c0 .41-.33.74-.74.74s-.74-.33-.74-.74c0-.05 0-.1-.03-.14-.11-.75-.8-1.27-1.55-1.16C.5 7.5 0 8.09 0 8.77c0 .18.14.32.32.32h.04c.16-.02.28-.15.28-.31H.62Zm9-7.4V2.6H6.3V1.37c0-.41.36-.74.81-.74s.81.33.81.74c0 .18.14.32.32.32s.32-.14.32-.32C8.56.61 7.91 0 7.12 0S5.68.62 5.68 1.37v5.11c0 .18.14.32.32.32s.32-.14.32-.32V5.39h3.32v1.09c0 .18.14.32.32.32s.32-.14.32-.32V1.37c0-.41.36-.74.81-.74s.81.33.81.74c0 .18.14.32.32.32s.32-.14.32-.32C12.54.61 11.89 0 11.1 0S9.66.62 9.66 1.37h-.04ZM6.3 4.75V3.23h3.32v1.52H6.3Z" data-name="Layer 1-2" style="fill:#7e7e84"/></g></svg>