<svg xmlns="http://www.w3.org/2000/svg" id="Layer_2" width="16" height="16" data-name="Layer 2"><defs><style>.cls-1{fill:#fff}</style></defs><g id="Layer_1-2" data-name="Layer 1"><path d="M9 1c0-.55-.45-1-1-1S7 .45 7 1v1c0 .55.45 1 1 1s1-.45 1-1V1ZM13.66 3.76a.996.996 0 1 0-1.41-1.41l-.71.71a.996.996 0 1 0 1.41 1.41l.71-.71ZM16 8c0 .55-.45 1-1 1h-1c-.55 0-1-.45-1-1s.45-1 1-1h1c.55 0 1 .45 1 1ZM3.05 4.46a.996.996 0 1 0 1.41-1.41l-.71-.71a.996.996 0 1 0-1.41 1.41l.71.71ZM3 8c0 .55-.45 1-1 1H1c-.55 0-1-.45-1-1s.45-1 1-1h1c.55 0 1 .45 1 1ZM6 14v-1h4v1c0 1.1-.9 2-2 2s-2-.9-2-2ZM10 12c.01-.34.21-.65.48-.86C11.41 10.41 12 9.27 12 8c0-2.21-1.79-4-4-4S4 5.79 4 8c0 1.27.6 2.41 1.52 3.14.27.21.46.52.48.86h4Z" class="cls-1"/></g></svg>