<?xml version="1.0" encoding="UTF-8"?>
<svg id="Layer_2" data-name="Layer 2" xmlns="http://www.w3.org/2000/svg" version="1.1" viewBox="0 0 146.4 147.2">
  <defs>
    <style>
      .cls-1 {
        fill: #7e7e84;
        stroke-width: 0px;
      }
    </style>
  </defs>
  <g id="Layer_2-2" data-name="Layer 2-2">
    <g id="Layer_1-2" data-name="Layer 1-2">
      <path class="cls-1" d="M7.5,136.9c3.7-3.7,6.6-6.2,9.1-9.1,2.3-2.7,4-3,6.9-.4,27.6,25.1,66.4,26.6,95.6,3.4,16.3-13,25-30.4,27.3-51.1.4-4-.6-6-5-5.7-3.8.3-7.7.2-11.5,0-3.7-.2-4.9,1.3-5.3,4.8-3.8,29.8-27.2,48.8-57.2,46.2-12.3-1.1-22.8-6.5-31.5-16.1,4.9-5.1,9.5-9.9,14.6-15.3H7.5v43.2ZM95.1,48.7c1.3,1,1.5,1.3,1.8,1.3,8.7,0,17.3.2,26,.1,4.8,0,11.6,1.5,13.9-.9,2.6-2.8,1.3-9.3,1.4-14.3.1-8.9,0-17.8,0-26.8-.6-.4-1.2-.8-1.9-1.3-3.6,4.9-7.2,9.8-10.8,14.7-2.7-2.2-3.6-3-4.5-3.7-28.8-23.8-66.1-24.1-95-.5C10.3,30.4,2.1,47.6,0,67.7c-.4,4,.7,6,5.1,5.6,3.3-.3,6.7-.3,10,0,4.6.5,6.3-1.1,6.9-5.9C26.5,30.8,65.7,10.6,98,28.3c3.7,2,6.9,4.8,12.2,8.4-5.7,4.6-10.3,8.3-15.1,12.1h0Z"/>
    </g>
  </g>
</svg>