<?xml version="1.0" encoding="UTF-8"?>
<svg id="Layer_2" data-name="Layer 2" xmlns="http://www.w3.org/2000/svg" width="66.05" height="10.07" viewBox="0 0 66.05 10.07">
  <defs>
    <style>
      .cls-1 {
        fill: blue;
      }
    </style>
  </defs>
  <g id="Camada_1" data-name="Camada 1">
    <g>
      <path class="cls-1" d="m0,0h1.04c.27,0,.5.1.69.29.19.19.29.42.29.69v.61H0V0Z"/>
      <path class="cls-1" d="m0,2.25h1.04c.27,0,.5.1.69.29.19.19.29.42.29.69v6.69H0V2.25Z"/>
      <path class="cls-1" d="m9.89,9.92h-1.99v-4.9c0-.46-.14-.8-.42-1.01-.28-.21-.59-.32-.94-.32s-.65.11-.92.32c-.27.21-.4.55-.4,1.01v4.9h-2.02v-4.5c0-1.31.34-2.18,1.02-2.63.68-.44,1.44-.68,2.26-.72.44,0,.87.05,1.3.14.42.1.81.29,1.15.58.29-.25.63-.43,1.02-.53.39-.11.8-.17,1.23-.19.85,0,1.62.22,2.34.66.71.44,1.07,1.34,1.07,2.68v4.5h-1.01c-.29,0-.52-.09-.71-.27-.18-.18-.27-.42-.27-.71v-3.92c0-.46-.14-.8-.42-1.01-.28-.21-.59-.32-.94-.32s-.66.11-.94.32c-.28.21-.42.55-.42,1.01v4.9Z"/>
      <path class="cls-1" d="m27.46,9.92h-2.05l-2.68-7.67h2.13l1.53,5.39,1.36-4.7c.15-.46.46-.69.92-.69h1.5l-2.71,7.67Z"/>
      <path class="cls-1" d="m36.4,3.11c-.63-.69-1.53-1.04-2.68-1.04s-1.95.36-2.57,1.07c-.6.69-.9,1.65-.9,2.88s.31,2.28.92,2.97c.62.71,1.47,1.07,2.57,1.07.9,0,1.65-.22,2.25-.66.6-.42,1-1.04,1.21-1.85h-1.44c-.23,0-.41.05-.53.15-.13.1-.2.17-.22.23-.06.06-.11.11-.16.16-.05.05-.1.08-.16.1-.23.14-.51.2-.84.2-.5,0-.88-.15-1.12-.46-.27-.29-.41-.73-.43-1.33h4.99s.03-.11.03-.2v-.32c0-1.27-.31-2.26-.92-2.97Zm-4.1,2.19c.02-.5.16-.88.43-1.15.27-.27.62-.4,1.04-.4.46,0,.82.14,1.07.4.23.25.36.64.4,1.15h-2.94Z"/>
      <path class="cls-1" d="m38.37,0h1.04c.27,0,.5.1.69.29.19.19.29.42.29.69v.61h-2.02V0Z"/>
      <path class="cls-1" d="m38.37,2.25h1.04c.27,0,.5.1.69.29.19.19.29.42.29.69v6.69h-2.02V2.25Z"/>
      <path class="cls-1" d="m41.5,7.38h1.96c.02.39.16.67.43.87.29.19.67.29,1.15.29.35,0,.64-.07.89-.2.23-.14.35-.32.35-.55,0-.35-.4-.61-1.21-.78-.35-.06-.61-.11-.78-.17-1.02-.25-1.7-.55-2.05-.89-.38-.35-.58-.81-.58-1.39,0-.73.28-1.34.84-1.82.58-.44,1.33-.66,2.25-.66,1,0,1.8.22,2.39.66.56.48.86,1.11.89,1.88h-1.24c-.37,0-.64-.16-.84-.49-.08-.08-.15-.15-.23-.23-.23-.17-.55-.26-.95-.26s-.67.06-.87.17c-.17.12-.26.29-.26.52,0,.31.5.57,1.5.78.12.04.22.07.3.09.09.02.17.03.24.03.98.25,1.66.54,2.05.87.37.35.55.81.55,1.39,0,.84-.31,1.5-.92,1.96-.58.42-1.44.63-2.6.63s-1.91-.22-2.45-.66c-.56-.44-.84-1.09-.84-1.93v-.09Z"/>
      <path class="cls-1" d="m51.7,7.38h1.96c.02.38.16.67.43.87.29.19.67.29,1.15.29.35,0,.64-.07.89-.2.23-.14.35-.32.35-.55,0-.35-.4-.61-1.21-.78-.35-.06-.61-.12-.78-.17-1.02-.25-1.7-.55-2.05-.9-.39-.34-.58-.81-.58-1.38,0-.73.28-1.34.84-1.82.58-.44,1.33-.66,2.25-.66,1,0,1.8.22,2.39.66.56.48.86,1.11.89,1.88h-1.24c-.37,0-.65-.16-.84-.49-.08-.08-.15-.15-.23-.23-.23-.17-.55-.26-.95-.26s-.67.06-.86.17c-.17.11-.26.29-.26.52,0,.31.5.57,1.5.78.12.04.22.07.3.09.09.02.17.03.24.03.98.25,1.66.54,2.05.87.37.35.55.81.55,1.38,0,.85-.31,1.5-.92,1.96-.58.42-1.44.63-2.6.63s-1.91-.22-2.45-.66c-.56-.44-.84-1.09-.84-1.93v-.09Zm12.91.17h1.44c-.21.81-.62,1.42-1.21,1.85-.6.44-1.35.66-2.25.66-1.1,0-1.95-.36-2.57-1.07-.62-.69-.92-1.68-.92-2.97s.3-2.19.89-2.89c.61-.71,1.47-1.07,2.57-1.07,1.16,0,2.05.35,2.68,1.04.35.42.6.91.75,1.47h-2.02c-.1-.19-.19-.34-.29-.43-.25-.27-.61-.4-1.07-.4-.42,0-.77.14-1.04.4-.35.38-.52,1.02-.52,1.9s.17,1.51.52,1.88c.25.31.62.46,1.12.46.33,0,.61-.07.84-.2.06-.02.11-.05.16-.1.05-.05.1-.1.16-.16.04-.06.12-.13.23-.23.12-.1.29-.14.52-.14Z"/>
      <path class="cls-1" d="m49.13,6.35v-.73c0-.45.23-.68.68-.68h1.22v1.41h-1.9Z"/>
      <path class="cls-1" d="m22.21,3.81c-.35-.71-.88-1.21-1.62-1.5-.64-.23-1.35-.29-2.13-.19-.79.11-1.43.45-1.93,1.02-.31.35-.53.78-.68,1.3-.14.52-.22,1.04-.22,1.56,0,.63.09,1.24.26,1.83.17.59.46,1.05.87,1.4.38.35.9.59,1.54.74.64.14,1.28.13,1.92-.04.69-.13,1.28-.52,1.76-1.15.21-.33.38-.71.52-1.15.13-.44.2-.97.2-1.59,0-.85-.16-1.59-.49-2.22Zm-1.85,3.92c-.23.35-.5.56-.79.65-.3.09-.59.08-.88-.03-.29-.11-.49-.24-.61-.39-.29-.35-.45-.96-.49-1.83-.04-.87.14-1.53.55-1.98.13-.13.35-.25.64-.33.29-.09.58-.08.87.02.29.1.54.32.76.66.22.35.33.87.33,1.56-.02.77-.14,1.33-.37,1.67Z"/>
      <path class="cls-1" d="m20.55,1.7l1.17-1.59h-1.5c-.2,0-.36.06-.47.19-.11.12-.19.23-.23.31l-.49.93c.5-.02,1.08.03,1.52.17Z"/>
    </g>
  </g>
</svg>