<?xml version="1.0" encoding="utf-8"?>
<!-- Generator: Adobe Illustrator 27.7.0, SVG Export Plug-In . SVG Version: 6.00 Build 0)  -->
<svg version="1.1" id="Layer_2_00000070100290121508993210000009687406843801602458_"
	 xmlns="http://www.w3.org/2000/svg" xmlns:xlink="http://www.w3.org/1999/xlink" x="0px" y="0px" viewBox="0 0 314.3 439.6"
	 style="enable-background:new 0 0 314.3 439.6;" xml:space="preserve">
<g id="Camada_1">
	<g>
		<g>
			<path d="M33.7,99.7l50.7,29.2V97.8L55,80.8L33.7,93.2c-1.8,1-2.4,3.3-1.4,5.1C32.6,98.9,33.1,99.3,33.7,99.7L33.7,99.7z"/>
			<path d="M140.8,93.3l-21.3-12.3L90.1,97.9V129l50.7-29.2c1.8-1,2.4-3.3,1.4-5.1C141.8,94.1,141.3,93.6,140.8,93.3L140.8,93.3z"/>
			<path d="M84.4,63.9L60.7,77.6l26.5,15.3l26.5-15.3L90.1,63.9C88.3,62.9,86.2,62.9,84.4,63.9L84.4,63.9z"/>
			<path d="M159.4,36.9L102.5,4c-9.3-5.4-20.9-5.4-30.2,0L15.1,36.9C5.8,42.3,0,52.3,0,63.1v65.6c0,10.8,5.8,20.8,15.1,26.2
				l57.1,32.9c4.7,2.7,9.9,4,15.1,4s10.5-1.4,15.1-4l56.9-32.9c9.3-5.4,15.1-15.4,15.1-26.2V63.1C174.5,52.3,168.7,42.3,159.4,36.9
				L159.4,36.9z M84.4,186.3c-3.3-0.4-6.5-1.4-9.5-3.1l-57.1-32.9c-7.7-4.4-12.5-12.7-12.5-21.6V63.1c0-3.4,0.7-6.7,2-9.8l77.1,44.5
				V186.3z M90.1,128.9c-1.7,1-3.9,1-5.6,0V97.7L55.1,80.8l5.5-3.2L10.1,48.4c2-2.8,4.6-5.2,7.7-6.9L74.9,8.6
				c3.8-2.2,8.1-3.3,12.4-3.3S96,6.4,99.8,8.7l56.9,32.8c3.1,1.8,5.6,4.1,7.7,6.9l-50.5,29.2l5.6,3.2L90,97.7
				C90,97.7,90,128.9,90.1,128.9z M169.1,128.7c0,8.9-4.8,17.1-12.5,21.6l-56.9,32.8c-3,1.8-6.3,2.8-9.7,3.2V97.8l77.1-44.5
				c1.3,3,2,6.3,2,9.8L169.1,128.7L169.1,128.7z"/>
		</g>
		<g>
			<g>
				<path d="M71.7,255.7c0-0.5,0-1,0-1.5c0,0,0-0.1,0-0.1c0-1,0-2,0.1-3.1c0,0,0-0.1,0-0.1v-4c0-2.1-2-3.7-4.5-3.7H53.2
					c-0.1,0-0.2,0-0.3,0c-0.1,0-0.2,0-0.3,0c-3.2,0-5.7,2.6-5.7,5.7s2.6,5.7,5.7,5.7c0.1,0,0.2,0,0.2,0c0.1,0,0.2,0,0.3,0h6
					c0,0.2,0,0.4,0,0.6c-0.2,9.3-2,10.9-11.8,10.9c-0.2,0-0.3,0-0.5,0s-0.3,0-0.5,0c-9.8,0-11.7-1.6-11.8-10.9c0-2-0.1-4.1-0.1-6.3
					c0-2.2,0.1-4.3,0.1-6.3c0.2-9.3,2-10.9,11.8-10.9c0.2,0,0.3,0,0.5,0H66c3.2,0,5.7-2.6,5.7-5.7s-2.6-5.7-5.7-5.7H46.9
					c-0.3,0-0.6,0-1,0c-19.8,0.1-23.5,3.2-23.9,22c0,0.5,0,1,0,1.5c0,0,0,0.1,0,0.1l0,0l0,7h0c0,1.1,0,2.2,0.1,3.3c0,0,0,0.1,0,0.1
					c0,0.5,0,1,0,1.5c0.3,18.7,4,21.9,23.9,22c0.3,0,0.7,0,1,0c0.3,0,0.6,0,1,0C67.7,277.6,71.4,274.4,71.7,255.7L71.7,255.7z"/>
				<path d="M196.4,271.9L196.4,271.9l0-23h0v-1.8l0,0c0-1.1,0-2.2-0.1-3.3c0,0,0-0.1,0-0.1c0-0.5,0-1,0-1.5
					c-0.3-18.7-4-21.9-23.9-22c-0.3,0-0.6,0-1,0c-0.3,0-0.6,0-1,0c-19.8,0.1-23.5,3.2-23.9,22c0,0.5,0,1,0,1.5c0,0,0,0.1,0,0.1
					c0,1.1,0,2.2-0.1,3.3h0v1.8h0v23h0c0.2,3.2,2.9,5.7,6.2,5.7s5.9-2.5,6.2-5.7h0v-23h0c0-2.2,0.1-4.3,0.1-6.3
					c0.2-9.3,2-10.9,11.9-10.9c0.2,0,0.3,0,0.5,0c0.2,0,0.3,0,0.5,0c9.9,0,11.7,1.6,11.9,10.9c0,2,0.1,4.1,0.1,6.3l0,0h0v23h0
					c0.2,3.2,2.9,5.7,6.2,5.7S196.1,275.1,196.4,271.9L196.4,271.9z"/>
				<path d="M115.4,277.7h0.2l0,0h12.8c3.2,0,5.7-2.6,5.7-5.7s-2.6-5.7-5.7-5.7h-12.8l0,0h-7c-9.8,0-11.6-1.6-11.8-10.9
					c0-0.2,0-0.4,0-0.6h31.5c3.2,0,5.7-2.6,5.7-5.7c0-0.2,0-0.4,0-0.5v-1.3l0,0c0-1.1,0-2.2-0.1-3.3c0,0,0-0.1,0-0.1
					c0-0.5,0-1,0-1.5c-0.3-18.7-4-21.9-23.9-22c-0.3,0-0.7,0-1,0s-0.6,0-1,0c-19.8,0.1-23.5,3.2-23.9,22c0,0.5,0,1,0,1.5
					c0,0,0,0.1,0,0.1l0,0l0,7h0c0,1.1,0,2.2,0.1,3.3c0,0,0,0.1,0,0.1c0,0.5,0,1,0,1.5c0.3,18.4,3.9,21.8,22.8,22l0,0h0.3
					c0.3,0,0.5,0,0.8,0c0.3,0,0.7,0,1,0l0,0h0l0,0L115.4,277.7L115.4,277.7z M96.8,242.7c0.2-9.3,2-10.9,11.8-10.9
					c0.2,0,0.3,0,0.5,0s0.3,0,0.5,0c9.8,0,11.7,1.6,11.8,10.9c0,0.2,0,0.4,0,0.6H96.8C96.8,243,96.8,242.8,96.8,242.7L96.8,242.7z"
					/>
			</g>
			<path d="M258.7,247.1c0-1.1,0-2.2-0.1-3.3v-0.1c0-0.5,0-1,0-1.5c-0.3-18.7-4-21.9-23.9-22c-0.3,0-0.6,0-1,0c-0.3,0-0.6,0-1,0
				c-19.8,0.1-23.5,3.2-23.9,22c0,0.5,0,1,0,1.5c0,0,0,0.1,0,0.1l0,0l0,7h0c0,1.1,0,2.2,0.1,3.3c0,0,0,0.1,0,0.1c0,0.5,0,1,0,1.5
				c0.3,18.4,3.9,21.8,22.8,22l0,0h0.3c0.3,0,0.5,0,0.8,0c0.3,0,0.6,0,1,0l0,0h0l0,0h6.2h0.2l0,0H253c3.2,0,5.7-2.6,5.7-5.7
				s-2.6-5.7-5.7-5.7h-12.8l0,0h-7c-9.8,0-11.6-1.6-11.8-10.9c0-0.2,0-0.4,0-0.6H253c3.2,0,5.7-2.6,5.7-5.7c0-0.2,0-0.4,0-0.5
				L258.7,247.1L258.7,247.1L258.7,247.1z M221.4,243.2c0-0.2,0-0.4,0-0.6c0.2-9.3,2-10.9,11.9-10.9c0.2,0,0.3,0,0.5,0
				c0.2,0,0.3,0,0.5,0c9.9,0,11.7,1.6,11.9,10.9c0,0.2,0,0.4,0,0.6H221.4L221.4,243.2z"/>
		</g>
		<g>
			<path d="M121.6,332.5C121.6,332.5,121.6,332.5,121.6,332.5L121.6,332.5l0-7.1h0c0-1.1,0-2.2-0.1-3.3c0,0,0,0,0-0.1
				c0-0.5,0-1,0-1.5c-0.3-18.6-4-21.9-23.3-22l0,0h-0.5c0,0,0,0-0.1,0c-0.1,0-0.3,0-0.4,0H77.5c0,0,0,0,0,0c-3.2,0-5.7,2.6-5.7,5.7
				s2.6,5.7,5.7,5.7l0,0h19.2l0,0c0.2,0,0.3,0,0.5,0c9.8,0,11.7,1.6,11.8,10.9c0,0.2,0,0.4,0,0.6H77.5v0c-3.2,0.3-5.7,3-5.7,6.3
				c0,0.2,0,0.3,0,0.5v0.8l0,0c0,1.1,0,2.2,0.1,3.3c0,0,0,0,0,0.1c0,0.5,0,1,0,1.5c0.3,18.7,4,21.9,23.9,22c0.3,0,0.7,0,1,0
				c0.3,0,0.6,0,1,0c19.8-0.1,23.5-3.2,23.9-22C121.6,333.5,121.6,333,121.6,332.5L121.6,332.5z M109.1,333.6
				c-0.2,9.3-2,10.9-11.8,10.9c-0.2,0-0.3,0-0.5,0s-0.3,0-0.5,0c-9.8,0-11.7-1.6-11.8-10.9c0-0.2,0-0.4,0-0.6h24.7
				C109.1,333.2,109.1,333.4,109.1,333.6L109.1,333.6z"/>
			<path d="M314.3,325.5c0-1.1,0-2.2-0.1-3.3V322c0-0.5,0-1,0-1.5c-0.3-18.6-4-21.9-23.4-22l0,0h-0.5c0,0,0,0,0,0
				c-0.1,0-0.3,0-0.4,0h-19.7c0,0,0,0,0,0c-3.2,0-5.7,2.6-5.7,5.7s2.6,5.7,5.7,5.7l0,0h19.2l0,0c0.2,0,0.3,0,0.5,0
				c9.9,0,11.7,1.6,11.9,10.9c0,0.2,0,0.4,0,0.6h-31.5v0c-3.2,0.3-5.7,3-5.7,6.3c0,0.2,0,0.3,0,0.5v0.8l0,0c0,1.1,0,2.2,0.1,3.3
				c0,0,0,0,0,0.1c0,0.5,0,1,0,1.5c0.3,18.7,4,21.9,23.9,22c0.3,0,0.6,0,1,0c0.3,0,0.6,0,1,0c19.8-0.1,23.5-3.2,23.9-22
				c0-0.5,0-1,0-1.5c0,0,0,0,0-0.1l0,0L314.3,325.5L314.3,325.5L314.3,325.5z M301.7,333.6c-0.2,9.3-2,10.9-11.9,10.9
				c-0.2,0-0.3,0-0.5,0s-0.3,0-0.5,0c-9.9,0-11.7-1.6-11.9-10.9c0-0.2,0-0.4,0-0.6h24.7C301.7,333.2,301.7,333.4,301.7,333.6
				L301.7,333.6z"/>
			<path d="M53.6,298.6h-6.7c-0.3,0-0.6,0-1,0c-19.8,0.1-23.5,3.2-23.9,22c0,0.5,0,1,0,1.5v0.1c0,1.1,0,2.2-0.1,3.3h0v1.8h0v23h0
				c0.2,3.2,2.9,5.7,6.2,5.7s6-2.5,6.2-5.7h0v-23h0c0-2.2,0.1-4.3,0.1-6.3c0.2-9.3,2-10.9,11.8-10.9c0.2,0,0.3,0,0.5,0h6.7
				c3.2,0,5.7-2.6,5.7-5.7S56.8,298.6,53.6,298.6L53.6,298.6z"/>
			<path d="M164.8,304.3c0-3.2-2.6-5.7-5.7-5.7c0,0,0,0,0,0c-0.3,0-0.6,0-0.9,0c-4.7,0-8.4,0.2-11.5,0.7v-7c0-3.4-2.8-6.2-6.2-6.2
				s-6.2,2.8-6.2,6.2v57.4c0,3.4,2.8,6.2,6.2,6.2s6.2-2.8,6.2-6.2v-22.5h0c0-2.2,0.1-4.3,0.1-6.3c0.2-9.3,2-10.9,11.9-10.9
				c0.2,0,0.3,0,0.5,0l0,0C162.2,310,164.8,307.5,164.8,304.3L164.8,304.3z"/>
			<path d="M183.4,356c3.3,0,5.9-2.5,6.2-5.7h0v-45.4c0-3.4-2.8-6.2-6.2-6.2s-6.2,2.8-6.2,6.2v45.4h0
				C177.5,353.4,180.2,356,183.4,356L183.4,356z"/>
			<path d="M247.5,298.8C247.5,298.8,247.4,298.8,247.5,298.8C247.4,298.8,247.4,298.8,247.5,298.8c-2.9-0.9-6,0.5-7.3,3.1
				c0,0,0,0,0,0c-0.1,0.1-0.1,0.3-0.2,0.4c0,0.1-0.1,0.1-0.1,0.2c0,0,0,0,0,0h0l-0.1,0.5c0,0,0,0,0,0l-0.8,2.6L227.7,344l0,0
				c-0.1,0.3-0.3,0.5-0.6,0.5s-0.6-0.2-0.6-0.5l-11.2-38.3l-0.8-2.6c0,0,0,0,0,0l-0.1-0.5h0c0,0,0,0,0,0c0-0.1-0.1-0.1-0.1-0.2
				c-0.1-0.1-0.1-0.3-0.2-0.4c0,0,0,0,0,0c-1.4-2.6-4.4-3.9-7.2-3.1c0,0,0,0,0,0c0,0,0,0,0,0c-3.3,1-5.2,4.5-4.3,7.8l0.8,2.6
				l5.5,18.9l0.8,2.6l4.5,15.3l0,0l0,0c1.6,5.7,6.9,10,13.1,10c5.9,0,10.9-3.7,12.8-8.9c0,0,0.1,0,0.1,0l0,0l4.8-16.4l0.8-2.6
				l5.5-18.9l0.8-2.6C252.7,303.3,250.8,299.8,247.5,298.8L247.5,298.8z"/>
		</g>
		<g>
			<g>
				<path d="M215.9,368.7c-1.2,0-2.1,0.9-2.1,2.1s0.9,2.1,2.1,2.1s2.1-0.9,2.1-2.1S217,368.7,215.9,368.7z"/>
				<path d="M29.4,391.3c-3.5,0-6-2.6-6-6.4s2.5-6.4,6-6.4c2.1,0,3.8,0.9,5,2.2l2-1.8c-1.7-2.1-4.5-3.2-7.1-3.2
					c-5.2,0-8.9,3.8-8.9,9.1s3.7,9.1,8.8,9.1c3.2,0,5.8-1.3,7.3-3l-2-1.8C33.3,390.5,31.5,391.3,29.4,391.3L29.4,391.3z"/>
				<path d="M52.1,375.9c-5.5,0-9.2,4-9.2,9.1s3.7,9.1,9.2,9.1c5.2,0,9.1-3.7,9.1-9.1S57.4,375.9,52.1,375.9z M52.1,391.3
					c-3.7,0-6.2-2.8-6.2-6.3s2.5-6.4,6.2-6.4c3.4,0,6.1,2.6,6.1,6.4S55.5,391.3,52.1,391.3z"/>
				<path d="M90.5,375.9c-2.7,0-5,1.2-6.4,3.5H84c-0.9-2.3-2.9-3.5-5.6-3.5c-2.3,0-4.5,1.1-5.9,3.2h-0.1v-3h-2.9v17.7h2.9V385
					c0-4,2.2-6.4,5.1-6.4s4.2,1.7,4.2,5.6v9.6h2.9V385c0-4,2.2-6.4,5-6.4s4.1,1.7,4.1,5.6v9.6h2.9v-10.4
					C96.7,378.2,94.5,375.9,90.5,375.9z"/>
				<path d="M114.6,375.9L114.6,375.9c-2.4,0-4.6,1-6,2.8h-0.1v-2.6h-2.9V401h2.9v-9.8h0.1c1.4,1.8,3.5,2.9,6,2.9
					c4.9,0,8.7-3.5,8.7-9S119.7,375.9,114.6,375.9z M114.3,391.4c-3.1,0-5.9-2.5-5.9-6.2s2.5-6.5,5.9-6.5s6,2.6,6,6.5
					C120.3,388.7,117.9,391.4,114.3,391.4L114.3,391.4z"/>
				<path d="M143.6,384.7c0,4.2-2.4,6.6-5.3,6.6s-4.3-1.5-4.3-5.5v-9.7h-2.9v10.5c0,5,2.6,7.4,6.6,7.4c2.3,0,4.4-1.1,5.8-3.2h0.1
					v2.9h2.9v-17.7h-2.9L143.6,384.7L143.6,384.7z"/>
				<path d="M161.1,391.3c-1.7,0-2.2-1-2.2-3.2v-9.4h5.9v-2.6H159v-6.4l-2.9,0.3v6.1h-2.3v2.6h2.3v9.9c0,3.6,1.5,5.5,4.6,5.5
					c2.1,0,3.3-0.5,4.3-1.1l-0.8-2.6C163.3,390.9,162.2,391.3,161.1,391.3L161.1,391.3z"/>
				<path d="M185.4,378.8L185.4,378.8c-1.5-1.9-3.7-2.8-6.1-2.8c-5,0-8.7,3.9-8.7,9.2s3.8,9,8.7,9c2.6,0,4.8-1.1,6.2-3h0.1v2.8h2.8
					v-17.7h-2.9V378.8z M179.6,391.4c-3.6,0-6-2.7-6-6.2c0-3.9,2.6-6.5,6-6.5s5.9,2.9,5.9,6.5S182.8,391.4,179.6,391.4L179.6,391.4z
					"/>
				<path d="M203,391.3c-1.7,0-2.2-1-2.2-3.2v-9.4h5.9v-2.6h-5.9v-6.4l-2.9,0.3v6.1h-2.3v2.6h2.3v9.9c0,3.6,1.5,5.5,4.6,5.5
					c2.1,0,3.3-0.5,4.3-1.1l-0.8-2.6C205.1,390.9,204,391.3,203,391.3L203,391.3z"/>
				<rect x="214.4" y="376.1" width="2.9" height="17.7"/>
				<path d="M234.9,375.9c-5.5,0-9.2,4-9.2,9.1s3.7,9.1,9.2,9.1c5.2,0,9.1-3.7,9.1-9.1S240.1,375.9,234.9,375.9z M234.9,391.3
					c-3.7,0-6.2-2.8-6.2-6.3s2.5-6.4,6.2-6.4c3.4,0,6.1,2.6,6.1,6.4S238.3,391.3,234.9,391.3z"/>
				<path d="M261.6,375.9c-2.6,0-5,1.1-6.4,3.3h-0.1v-3h-2.9v17.7h2.9V385c0-4,2.2-6.4,5.6-6.4c2.6,0,4.3,1.4,4.3,5.5v9.7h3v-10.5
					C268,378.2,265.4,375.9,261.6,375.9L261.6,375.9z"/>
				<path d="M290.7,378.8L290.7,378.8c-1.5-1.9-3.7-2.8-6.1-2.8c-5,0-8.7,3.9-8.7,9.2s3.8,9,8.7,9c2.6,0,4.8-1.1,6.2-3h0v2.8h2.8
					v-17.7h-3L290.7,378.8L290.7,378.8z M284.8,391.4c-3.6,0-6-2.7-6-6.2c0-3.9,2.6-6.5,6-6.5s5.9,2.9,5.9,6.5
					S288,391.4,284.8,391.4L284.8,391.4z"/>
				<rect x="302.9" y="367" width="2.9" height="26.8"/>
			</g>
			<g>
				<path d="M65.7,407.1c-1.2,0-2.1,0.9-2.1,2.1s0.9,2.1,2.1,2.1s2.1-0.9,2.1-2.1S66.9,407.1,65.7,407.1z"/>
				<path d="M125.8,407.1c-1.2,0-2.1,0.9-2.1,2.1s0.9,2.1,2.1,2.1s2.1-0.9,2.1-2.1S126.9,407.1,125.8,407.1z"/>
				<path d="M27.7,429.7c-1.7,0-2.2-1-2.2-3.2v-9.4h5.9v-2.6h-5.9v-6.4l-3,0.3v6.1h-2.3v2.6h2.3v9.9c0,3.6,1.5,5.5,4.6,5.5
					c2.1,0,3.3-0.5,4.3-1.1l-0.8-2.6C29.9,429.3,28.8,429.7,27.7,429.7L27.7,429.7z"/>
				<path d="M48.6,414.3c-2.7,0-5,1.1-6.5,3.1H42v-12h-3v26.8h3v-8.9c0-4,2.2-6.3,5.7-6.3c2.6,0,4.3,1.4,4.3,5.4v9.8h3v-10.6
					C55,416.6,52.5,414.3,48.6,414.3L48.6,414.3z"/>
				<rect x="64.2" y="414.5" width="2.9" height="17.7"/>
				<path d="M86.1,414.3c-2.6,0-5,1.1-6.4,3.3h-0.1v-3h-2.9v17.7h2.9v-8.9c0-4,2.2-6.4,5.6-6.4c2.6,0,4.3,1.4,4.3,5.5v9.7h2.9v-10.5
					C92.5,416.7,89.9,414.3,86.1,414.3L86.1,414.3z"/>
				<polygon points="116.7,414.5 113.2,414.5 104.4,424.2 104.4,424.2 104.4,405.5 101.4,405.5 101.4,432.2 104.4,432.2 
					104.4,428.2 108.1,424.1 108.2,424.1 113.4,432.2 116.8,432.2 110.1,421.9 				"/>
				<rect x="124.3" y="414.5" width="2.9" height="17.7"/>
				<path d="M146.2,414.3c-2.6,0-5,1.1-6.4,3.3h-0.1v-3h-2.9v17.7h2.9v-8.9c0-4,2.2-6.4,5.6-6.4c2.6,0,4.3,1.4,4.3,5.5v9.7h2.9
					v-10.5C152.5,416.7,150,414.3,146.2,414.3L146.2,414.3z"/>
				<path d="M174.9,414.5v2.5h-0.1c-1.5-1.7-3.8-2.7-6.1-2.7c-4.8,0-8.4,3.8-8.4,8.8c0,5.3,3.9,8.8,8.6,8.8c2.6,0,4.6-1,6-2.7h0.1
					v2.5c0,2.9-2,5.2-6,5.2c-2.5,0-4.3-0.7-6.4-1.9l-0.7,2.7c2.1,1.3,4.6,1.9,7.2,1.9c6.2,0,8.7-3.6,8.7-8.7v-16.4L174.9,414.5
					L174.9,414.5z M169.1,429.2L169.1,429.2c-3.2,0-5.8-2.3-5.8-6.1c0-3.4,2.4-6,5.8-6s5.9,2.4,5.9,6S172.7,429.2,169.1,429.2
					L169.1,429.2z"/>
			</g>
		</g>
	</g>
</g>
</svg>
