<svg xmlns="http://www.w3.org/2000/svg" id="Layer_2" width="240" height="240.03" data-name="Layer 2"><defs><style>.cls-1{fill:#fff}.cls-2{fill:#8a8a8a}</style></defs><g id="Camada_1" data-name="Camada 1"><path d="M215.59 55.36c-1.47-.84-1.84-1.76-1.82-3.31.08-5.7-.02-11.41.06-17.11.03-1.96-.64-3.41-2.01-4.76-9.48-9.41-18.87-18.92-28.42-28.26-1.09-1.06-2.98-1.84-4.5-1.84C130.78-.02 82.65 0 34.52 0c-5.31 0-8.26 3.08-8.26 8.55v160.21c-1.31 0-2.38-.02-3.45 0-4.64.08-7.77 3.19-7.79 7.85-.04 10.16-.01 20.31-.01 30.47v2.94c-3.24 0-6.41.12-9.57-.04-2.3-.12-4.11.47-5.44 2.38v2.81c1.32 1.89 3.13 2.43 5.42 2.39 6.84-.12 13.68-.04 20.84-.04 0 4.38.19 8.64-.05 12.87-.27 4.61 1.46 7.79 5.68 9.63h176.3c4.24-1.85 5.71-5.07 5.69-9.67-.13-29.14-.06-58.28-.1-87.41 0-1.56.39-2.47 1.84-3.31 32.52-18.8 32.51-65.56-.02-84.27Zm-31.66-41.77c5.4 5.41 10.84 10.84 16.31 16.32h-16.31V13.6ZM22.67 209.84v-33.46h14.72v33.46H22.67Zm183.56 22.54H33.89v-14.85H123.04c2.77-.05 4.46-1.45 4.48-3.71.03-2.28-1.65-3.76-4.4-3.78-3.43-.03-6.85 0-10.59 0V143.9c0-6.07-2.81-8.86-8.9-8.87-4.3 0-8.6-.02-12.89 0-5.11.02-8.19 3.07-8.21 8.14-.02 5.93 0 11.86 0 17.95H67.76c-1.61-5.81-3.66-7.34-9.84-7.34-4.14 0-8.28-.02-12.42 0-4.8.04-7.91 3.13-7.97 7.9-.03 2.26 0 4.51 0 7.01h-3.62V7.61h142.41v2.45c0 6.41-.02 12.81 0 19.22.02 5.13 3.04 8.19 8.14 8.21 7.18.03 14.36 0 21.7 0v13.3c-23.14-5.54-42.49.36-55.74 20.55-11.16 17-11.16 35.3 0 52.3 13.25 20.19 32.6 26.09 55.83 20.55v88.17ZM45.12 209.87v-48.48h14.72v48.48H45.12Zm22.56-.03v-40.96H82.4v40.96H67.68Zm22.5 0v-67.21h14.72v67.21H90.18Zm60.26-116.19c1-19.25 18.3-36.09 36.99-36.96v36.96h-36.99Zm30.47 7.73-21.86 21.8c-4.82-5.93-7.98-13.28-8.74-21.8h30.6Zm-15.49 28.09c8.67-8.68 17.36-17.38 25.87-25.89 8.44 8.46 17.14 17.17 25.82 25.87-13 11.8-36.43 13.16-51.68.03Zm57.44-5.69c-8.06-8.07-16.01-16.25-24.24-24.14-2.7-2.59-3.76-5.18-3.67-8.93.27-10.46.1-20.93.1-31.4v-2.53c12.04-.81 27.62 10.19 33.8 23.65 7.18 15.66 3.21 33.16-5.99 43.34Z"/><path d="M120.49 60.07c-.76-.14-1.56-.06-2.34-.06H54.39c-.78 0-1.58-.08-2.34.06-2.02.37-3.24 1.61-3.24 3.69s1.23 3.31 3.24 3.69c.68.13 1.4.06 2.1.06h64.23c.7 0 1.42.07 2.1-.06 2.01-.38 3.24-1.62 3.24-3.69s-1.22-3.32-3.24-3.69ZM52.57 52.49c.62.04 1.25.01 1.87.01h63.99c.7 0 1.43.07 2.1-.07 2.01-.4 3.22-1.66 3.19-3.73-.03-2.07-1.27-3.29-3.29-3.65-.61-.11-1.25-.05-1.87-.05H53.87c-.47 0-.94-.02-1.41.02-2.21.19-3.71 1.74-3.68 3.78.03 2.04 1.54 3.53 3.79 3.69ZM119.32 97.52c-8.52-.02-17.03 0-25.55 0H67.99c-1.93 0-3.62.72-3.9 2.62-.19 1.25.34 2.95 1.17 3.9.65.75 2.25.93 3.44.94 11.72.06 23.44.04 35.16.04 5.23 0 10.47.03 15.7-.01 2.72-.02 4.49-1.87 4.18-4.2-.27-2.06-1.85-3.27-4.42-3.27ZM119.09 30.01c-11.56-.01-23.13 0-34.69 0-5.47 0-10.94-.03-16.41.01-2.72.02-4.49 1.87-4.18 4.2.27 2.06 1.85 3.27 4.42 3.27 8.44.02 16.88 0 25.31 0s17.19.02 25.78 0c2.9 0 4.74-1.81 4.42-4.21-.28-2.12-1.88-3.27-4.65-3.27ZM182.86 176.27c-5.94-.02-11.88 0-17.81 0s-11.88-.01-17.81 0c-2.96 0-4.67 1.41-4.67 3.74 0 2.34 1.72 3.74 4.67 3.75 11.88.01 23.75.01 35.63 0 2.95 0 4.67-1.41 4.67-3.75s-1.72-3.74-4.67-3.74ZM182.85 191.28c-11.88-.01-23.75-.01-35.63 0-2.95 0-4.67 1.41-4.67 3.75s1.72 3.73 4.68 3.74c5.94.02 11.88 0 17.81 0s11.88.01 17.81 0c2.95 0 4.67-1.42 4.67-3.75s-1.72-3.74-4.68-3.74ZM53.31 82.5c4.69.02 9.37 0 14.06 0h12.48l17.68-.02c2.03-.01 3.72-1.73 3.71-3.75-.01-2.04-1.72-3.72-3.75-3.71l-14.75.06a6.67 6.67 0 0 0-1.03-.07c-9.45-.02-18.91-.02-28.36 0-2.91 0-4.64 1.49-4.58 3.83.06 2.27 1.72 3.64 4.53 3.65ZM183.09 161.28c-7.03-.02-14.06-.02-21.09 0-2.76 0-4.44 1.47-4.44 3.74 0 2.27 1.68 3.72 4.44 3.74 3.44.03 6.87 0 10.31 0s7.19.02 10.78 0c2.75-.02 4.44-1.48 4.44-3.74 0-2.27-1.69-3.73-4.44-3.74ZM97.52 112.53H81.18c-.12-.01-.24-.02-.36-.02H54.34c-3.78 0-5.59 1.24-5.55 3.81.04 2.54 1.8 3.69 5.67 3.69h43.08c2.03-.02 3.73-1.72 3.72-3.75 0-2.03-1.7-3.73-3.74-3.72ZM176.26 206.29h-15.32a680.7 680.7 0 0 0-14.29 0c-2.43.03-4.01 1.51-4.08 3.62-.07 2.2 1.57 3.79 4.09 3.85 2.34.06 4.69.01 7.03.01h5.61l17.03-.03c2.03-.02 3.72-1.74 3.69-3.77-.02-2.04-1.74-3.71-3.77-3.69Z"/><path d="M206.23 144.2c-23.23 5.54-42.58-.35-55.83-20.55-11.16-17.01-11.16-35.3 0-52.3 13.25-20.19 32.6-26.09 55.74-20.55V37.5c-7.34 0-14.52.02-21.7 0-5.1-.02-8.12-3.08-8.14-8.21-.02-6.41 0-12.81 0-19.22V7.62H33.89v161.07h3.62c0-2.5-.02-4.75 0-7.01.06-4.77 3.17-7.86 7.97-7.9 4.14-.03 8.28 0 12.42 0 6.18 0 8.23 1.53 9.84 7.34h14.77c0-6.09-.02-12.02 0-17.95.02-5.07 3.1-8.11 8.21-8.14 4.3-.02 8.59 0 12.89 0 6.09 0 8.9 2.8 8.9 8.87v66.14c3.73 0 7.16-.02 10.59 0 2.74.03 4.43 1.51 4.4 3.78-.03 2.26-1.71 3.66-4.48 3.71-.62.01-1.25 0-1.88 0H33.89v14.85h172.34v-88.17ZM52.47 45.02c.47-.04.94-.02 1.41-.02h64.69c.62 0 1.26-.06 1.87.05 2.02.36 3.26 1.58 3.29 3.65.03 2.07-1.18 3.33-3.19 3.73-.68.14-1.4.07-2.1.07H54.45c-.63 0-1.25.03-1.87-.01-2.24-.16-3.76-1.64-3.79-3.69-.03-2.04 1.47-3.59 3.68-3.78Zm71.26 18.73c0 2.07-1.23 3.31-3.24 3.69-.68.13-1.4.06-2.1.06H54.16c-.7 0-1.42.07-2.1-.06-2.01-.38-3.24-1.61-3.24-3.69s1.22-3.32 3.24-3.69c.76-.14 1.56-.06 2.34-.06h63.76c.78 0 1.58-.08 2.34.06 2.02.37 3.24 1.62 3.24 3.69ZM53.36 75.01c9.45-.02 18.91-.02 28.36 0 .36 0 .7.03 1.03.07l14.75-.06c2.03-.01 3.74 1.67 3.75 3.71.01 2.03-1.68 3.74-3.71 3.75l-17.68.02H67.38c-4.69 0-9.37.02-14.06 0-2.81-.01-4.47-1.38-4.53-3.65-.06-2.35 1.67-3.83 4.58-3.83Zm44.17 44.98H81c-.1.01-.2.02-.3.02H54.45c-3.86 0-5.62-1.15-5.67-3.69-.04-2.56 1.77-3.81 5.55-3.81h43.18c2.03 0 3.73 1.7 3.74 3.73 0 2.03-1.7 3.74-3.72 3.74Zm22.02-15c-5.23.04-10.47.01-15.7.01-11.72 0-23.44.03-35.16-.04-1.18 0-2.78-.19-3.44-.94-.83-.96-1.36-2.65-1.17-3.9.29-1.9 1.98-2.62 3.9-2.62 7.34.01 14.69 0 22.03 0h3.75c8.52 0 17.03-.01 25.55 0 2.57 0 4.14 1.21 4.42 3.27.31 2.33-1.47 4.18-4.18 4.2Zm-.23-67.5c-8.59.02-17.19 0-25.78 0s-16.88.01-25.31 0c-2.57 0-4.14-1.22-4.42-3.27-.31-2.34 1.46-4.18 4.18-4.2 5.47-.04 10.94-.01 16.41-.01h34.69c2.77 0 4.37 1.15 4.65 3.27.32 2.4-1.51 4.2-4.42 4.21Zm57.01 176.26-17.03.03h-5.61c-2.34 0-4.69.04-7.03-.01-2.52-.06-4.16-1.65-4.09-3.85.06-2.11 1.65-3.6 4.08-3.62 4.76-.05 9.53-.05 14.29 0h15.32c2.03-.02 3.75 1.66 3.77 3.69.02 2.03-1.67 3.75-3.69 3.77Zm6.53-14.99c-5.94.02-11.88 0-17.81 0s-11.88.01-17.81 0c-2.96 0-4.67-1.41-4.68-3.74 0-2.34 1.71-3.74 4.67-3.75 11.88-.01 23.75-.01 35.63 0 2.96 0 4.67 1.4 4.68 3.74 0 2.33-1.72 3.74-4.67 3.75Zm0-15c-11.88.01-23.75.01-35.63 0-2.95 0-4.67-1.41-4.67-3.75s1.72-3.73 4.67-3.74c5.94-.02 11.88 0 17.81 0s11.88-.01 17.81 0c2.95 0 4.67 1.41 4.67 3.74s-1.72 3.74-4.67 3.75Zm.24-15c-3.59.03-7.19 0-10.78 0s-6.87.02-10.31 0c-2.76-.02-4.44-1.47-4.44-3.74 0-2.27 1.67-3.73 4.44-3.74 7.03-.02 14.06-.02 21.09 0 2.75 0 4.44 1.47 4.44 3.74 0 2.27-1.69 3.72-4.44 3.74Z" class="cls-2"/><path d="M183.94 13.59v16.32h16.31c-5.47-5.48-10.9-10.91-16.31-16.32Z" class="cls-2"/><path d="M45.12 161.38v48.48h14.72v-48.48H45.12ZM67.68 168.87v40.96H82.4v-40.96H67.68ZM90.19 142.62v67.21h14.72v-67.21H90.19ZM37.39 176.38H22.67v33.46h14.72v-33.46ZM159.06 123.17l21.86-21.8h-30.6c.76 8.52 3.92 15.87 8.74 21.8ZM191.29 103.57c-8.51 8.52-17.19 17.21-25.87 25.89 15.25 13.14 38.69 11.78 51.68-.03-8.68-8.7-17.38-17.41-25.82-25.87ZM228.85 80.44c-6.18-13.47-21.76-24.47-33.8-23.65v2.53c0 10.47.18 20.94-.1 31.4-.1 3.75.96 6.34 3.67 8.93 8.23 7.89 16.18 16.07 24.24 24.14 9.2-10.18 13.17-27.68 5.99-43.34ZM187.43 56.68c-18.68.87-35.98 17.71-36.99 36.96h36.99V56.68Z" class="cls-1"/></g></svg>