<svg xmlns="http://www.w3.org/2000/svg" id="Layer_2" width="240" height="222.14" data-name="Layer 2"><defs><style>.cls-1{fill:#fff}.cls-2{fill:#8a8a8a}</style></defs><g id="Camada_1" data-name="Camada 1"><path d="m153.75 50.77-30.69-17.72c-.96-.55-2.03-.83-3.1-.83s-2.14.28-3.1.83L86.17 50.77l33.79 19.51 33.79-19.51ZM82.38 92.77c0 2.21 1.19 4.26 3.1 5.37l30.69 17.72V76.84L82.38 57.33v35.44ZM157.53 92.77V57.33l-33.79 19.51v39.02l30.69-17.72c1.91-1.1 3.1-3.16 3.1-5.37Z" class="cls-1"/><path d="M140.78 190.31c-13.84-.01-27.69.02-41.53-.04-1.91 0-2.39.73-2.36 2.51.09 5.43.03 10.85.03 16.28v5.21h46.16c0-7.66-.01-15.04 0-22.42 0-1.73-1.23-1.55-2.3-1.55ZM232.1 173.66c.41-7.28.1-14.6.1-22.07H7.76c0 7.42-.25 14.66.08 21.87.25 5.47 4.41 8.82 10.03 8.82h204.27c5.55 0 9.65-3.18 9.95-8.61Zm-128.09-5.45c0 .07 0 .14-.01.21v.03c-.13 2.09-1.85 3.74-3.97 3.74s-3.83-1.64-3.97-3.71h-.01v-2.88c0-.08 0-.15.01-.22v-.08c.16-2.06 1.87-3.68 3.97-3.68s3.85 1.66 3.97 3.74v.03c0 .07.01.14.01.21s0 .14-.01.21v2.2c0 .07.01.14.01.21Zm19.93 0c0 .07 0 .14-.01.21v.03c-.13 2.09-1.85 3.74-3.97 3.74s-3.83-1.64-3.97-3.71h-.01v-2.88c0-.08 0-.15.01-.22v-.08c.16-2.06 1.87-3.68 3.97-3.68s3.85 1.66 3.97 3.74v.03c0 .07.01.14.01.21s0 .14-.01.21v2.2c0 .07.01.14.01.21Zm19.93 0c0 .07 0 .14-.01.21v.03c-.13 2.09-1.85 3.74-3.97 3.74s-3.83-1.64-3.97-3.71h-.01v-2.88c0-.08 0-.15.01-.22v-.08c.16-2.06 1.87-3.68 3.97-3.68s3.85 1.66 3.97 3.74v.03c0 .07.01.14.01.21s0 .14-.01.21v2.2c0 .07.01.14.01.21ZM232.44 18.71c0-7.49-3.67-11.2-11.11-11.21H18.68c-7.45 0-11.11 3.71-11.11 11.2v124.84h224.88V18.7Zm-67.33 73.94c0 4.9-2.64 9.47-6.88 11.92l-31.38 18.12c-2.12 1.23-4.5 1.84-6.88 1.84s-4.76-.61-6.88-1.84l-31.38-18.12a13.79 13.79 0 0 1-6.88-11.92V56.41c0-4.9 2.64-9.47 6.88-11.92l31.38-18.12c4.25-2.45 9.52-2.45 13.77 0l31.38 18.12a13.79 13.79 0 0 1 6.88 11.92v36.24Z" class="cls-2"/><path d="M221.61 0C153.89 0 86.18 0 18.47.01c-1.49 0-3.01.03-4.46.32C5.43 2.07.09 8.97.09 18.28.08 69.21.2 120.15 0 171.08c-.04 11.21 8.05 19.2 19.01 19.03 22.36-.34 44.72-.1 67.08-.1h2.94v24.62h-2.71c-3.94 0-7.87-.04-11.81.02-2.67.04-4.25 1.49-4.26 3.73-.02 2.25 1.57 3.66 4.21 3.75.39.01.79 0 1.18 0h88.81c.79 0 1.59.06 2.36-.09 1.73-.34 2.8-1.43 2.98-3.19.19-1.85-.57-3.27-2.38-3.87-.87-.29-1.85-.32-2.79-.32-4.47-.03-8.95-.01-13.56-.01v-24.62H154c22.52 0 45.04.02 67.56 0 11.28-.01 18.43-7.18 18.44-18.46V18.53C240 7.21 232.88.04 221.61.03Zm-78.49 214.27H96.96v-5.21c0-5.43.06-10.85-.03-16.28-.03-1.79.45-2.52 2.36-2.51 13.84.06 27.69.03 41.53.04 1.08 0 2.31-.18 2.3 1.55-.02 7.38 0 14.77 0 22.42Zm89.03-40.62c-.3 5.43-4.41 8.61-9.95 8.61H17.93c-5.62 0-9.77-3.35-10.03-8.82-.34-7.21-.08-14.45-.08-21.87h224.44c0 7.47.31 14.79-.1 22.07Zm.34-30.12H7.6V18.69c0-7.49 3.66-11.2 11.11-11.2h202.65c7.44 0 11.11 3.72 11.11 11.21v124.84Z"/><path d="M143.91 165.59c0-.07 0-.14-.01-.21v-.03c-.13-2.09-1.85-3.74-3.97-3.74s-3.81 1.62-3.97 3.68v.08c0 .07-.01.15-.01.22v2.88h.01c.14 2.07 1.86 3.71 3.97 3.71s3.85-1.66 3.97-3.74v-.03c0-.07.01-.14.01-.21s0-.14-.01-.21v-2.2c0-.07.01-.14.01-.21ZM123.99 165.59c0-.07 0-.14-.01-.21v-.03c-.13-2.09-1.85-3.74-3.97-3.74s-3.81 1.62-3.97 3.68v.08c0 .07-.01.15-.01.22v2.88h.01c.14 2.07 1.86 3.71 3.97 3.71s3.85-1.66 3.97-3.74v-.03c0-.07.01-.14.01-.21s0-.14-.01-.21v-2.2c0-.07.01-.14.01-.21ZM104.06 165.59c0-.07 0-.14-.01-.21v-.03c-.13-2.09-1.85-3.74-3.97-3.74s-3.81 1.62-3.97 3.68v.08c0 .07-.01.15-.01.22v2.88h.01c.14 2.07 1.86 3.71 3.97 3.71s3.85-1.66 3.97-3.74v-.03c0-.07.01-.14.01-.21s0-.14-.01-.21v-2.2c0-.07.01-.14.01-.21ZM158.27 44.48l-31.38-18.12a13.818 13.818 0 0 0-13.77 0L81.74 44.48a13.79 13.79 0 0 0-6.88 11.92v36.24c0 4.9 2.64 9.47 6.88 11.92l31.38 18.12c2.12 1.23 4.5 1.84 6.88 1.84s4.76-.61 6.88-1.84l31.38-18.12a13.79 13.79 0 0 0 6.88-11.92V56.4c0-4.9-2.64-9.47-6.88-11.92Zm-41.36-11.56c.96-.55 2.03-.83 3.1-.83s2.14.28 3.1.83l30.69 17.72-33.79 19.51-33.79-19.51 30.69-17.72ZM85.53 98.01a6.215 6.215 0 0 1-3.1-5.37V57.2l33.79 19.51v39.02L85.53 98.01Zm68.96 0-30.69 17.72V76.71l33.79-19.51v35.44c0 2.21-1.19 4.26-3.1 5.37Z"/></g></svg>