<?xml version="1.0" encoding="UTF-8"?><svg id="Layer_2" xmlns="http://www.w3.org/2000/svg" width="280.3" height="52.52" viewBox="0 0 280.3 52.52"><defs><style>.cls-1{fill:#fff;stroke-width:0px;}</style></defs><g id="Camada_1"><path class="cls-1" d="M9.2,27.32l13.9,8v-8.5l-8-4.6-5.8,3.4c-.5.3-.7.9-.4,1.4,0,0,.2.2.3.3ZM38.5,25.52l-5.8-3.4-8,4.6v8.5l13.9-8c.5-.3.7-.9.4-1.4-.2-.1-.3-.2-.5-.3ZM23.1,17.52l-6.5,3.7,7.2,4.2,7.2-4.2-6.5-3.7c-.3-.3-.9-.3-1.4,0Z"/><path class="cls-1" d="M43.6,10.13L28,1.12c-2.6-1.5-5.7-1.5-8.3,0L4.1,10.13C1.6,11.63,0,14.33,0,17.32v17.9c0,3,1.6,5.7,4.1,7.2l15.6,9c1.3.7,2.7,1.1,4.1,1.1s2.9-.4,4.1-1.1l15.6-9c2.6-1.5,4.1-4.2,4.1-7.2v-18c.1-2.9-1.5-5.6-4-7.1h0ZM23.1,51.02c-.9-.1-1.8-.4-2.6-.9l-15.6-9c-2.1-1.2-3.4-3.5-3.4-5.9v-18c0-.9.2-1.8.5-2.7l21.1,12.2v24.3h0ZM24.6,35.23c-.5.3-1.1.3-1.5,0v-8.5l-8-4.6,1.5-.9L2.8,13.23c.5-.8,1.3-1.4,2.1-1.9L20.5,2.33c1-.6,2.2-.9,3.4-.9s2.4.3,3.4.9l15.6,9c.8.5,1.5,1.1,2.1,1.9l-13.8,8,1.5.9-8,4.6-.1,8.5h0ZM46.3,35.23c0,2.4-1.3,4.7-3.4,5.9l-15.6,9c-.8.5-1.7.8-2.7.9v-24.2l21.1-12.2c.3.8.5,1.7.5,2.7l.1,17.9h0ZM152,27.32v-1.9h0v-1.4c-.1-5.1-1.1-6-6.4-6s-.1,0-.1,0h-5.5c-.9,0-1.6.7-1.6,1.6s.7,1.6,1.6,1.6h5.4c2.7,0,3.2.4,3.2,3v.2h-8.6c-.9.1-1.6.8-1.6,1.7v1.6c.1,5.1,1.1,6,6.5,6h.5c5.4,0,6.4-.9,6.5-6v-.4h.1ZM148.6,27.63c-.1,2.5-.6,3-3.2,3h-.3c-2.7,0-3.2-.4-3.2-3v-.2h6.8l-.1.2h0ZM204.7,25.32v-1.3c-.1-5.1-1.1-6-6.4-6s-.1,0-.1,0h-5.5c-.9,0-1.6.7-1.6,1.6s.7,1.6,1.6,1.6h5.4c2.7,0,3.2.4,3.2,3v.2h-8.6c-.9.1-1.6.8-1.6,1.7v1.6c.1,5.1,1.1,6,6.5,6h.5c5.4,0,6.4-.9,6.5-6l.1-2.4h0ZM201.2,27.63c-.1,2.5-.6,3-3.2,3h-.3c-2.7,0-3.2-.4-3.2-3v-.2h6.8l-.1.2h0ZM133.4,18.02h-2.1c-5.4,0-6.4.9-6.5,6v8.1c.1.9.8,1.6,1.7,1.6s1.6-.7,1.7-1.6v-8c.1-2.5.6-3,3.2-3h2c.9,0,1.6-.7,1.6-1.6s-.8-1.5-1.6-1.5h0ZM163.8,19.63c0-.9-.7-1.6-1.6-1.6h-.2c-1.3,0-2.3.1-3.1.2v-1.9c0-.9-.8-1.7-1.7-1.7s-1.7.8-1.7,1.7v15.7c0,.9.8,1.7,1.7,1.7s1.7-.8,1.7-1.7v-7.8c.1-2.5.6-3,3.2-3h.1c.9-.1,1.6-.8,1.6-1.6h0ZM168.9,33.73c.9,0,1.6-.7,1.7-1.6v-12.4c0-.9-.8-1.7-1.7-1.7s-1.7.8-1.7,1.7v12.4c.1.9.8,1.6,1.7,1.6ZM70.2,27.73v-2.3c0-.6-.6-1-1.2-1h-4c-.9,0-1.6.7-1.6,1.6s.7,1.6,1.6,1.6h1.8v.2c-.1,2.5-.6,3-3.2,3h-.3c-2.7,0-3.2-.4-3.2-3v-3.4c0-2.5.5-3,3.2-3h5.4c.9,0,1.6-.7,1.6-1.6s-.8-1.8-1.7-1.8h-5.5c-5.4,0-6.4.9-6.5,6v2.3h0v1.3c.1,5.1,1.1,6,6.5,6h.5c5.5.1,6.5-.8,6.6-5.9h0ZM104.3,32.12v-8.1c-.1-5.1-1.1-6-6.5-6h-.5c-5.4,0-6.4.9-6.5,6v8.1c.1.9.8,1.6,1.7,1.6s1.5-.7,1.5-1.6v-8c.1-2.5.6-3,3.2-3h.3c2.7,0,3.2.4,3.2,3v8c.1.9.8,1.6,1.7,1.6s1.8-.7,1.9-1.6h0ZM82.1,33.73h3.5c.9,0,1.6-.7,1.6-1.6s-.7-1.6-1.6-1.6h-5.4c-2.7,0-3.2-.5-3.2-3v-.2h8.6c.9,0,1.6-.7,1.6-1.6v-1.7c-.1-5.1-1.1-6-6.5-6h-.5c-5.4,0-6.4.9-6.5,6v2.3h0v1.3c.1,5,1.1,6,6.2,6s.1,0,.1,0l2.1.1h0ZM77,24.13c.1-2.5.6-3,3.2-3h.3c2.7,0,3.2.4,3.2,3v.2h-6.7v-.2h0ZM121.3,25.32v-1.3c-.1-5.1-1.1-6-6.5-6h-.5c-5.4,0-6.4.9-6.5,6v2.3h0v1.3c.1,5,1.1,6,6.2,6s.1,0,.1,0h5.7c.9,0,1.6-.7,1.6-1.6s-.7-1.6-1.6-1.6h-5.4c-2.7,0-3.2-.5-3.2-3v-.2h8.6c.9,0,1.6-.7,1.6-1.6l-.1-.3h0ZM111.1,24.32v-.2c.1-2.5.6-3,3.2-3h.3c2.7,0,3.2.4,3.2,3v.2h-6.7ZM186.4,18.13c-.8-.2-1.6.1-2,.8h0s0,.1-.1.1v.2l-.2.7-3.1,10.5c0,.1-.1.1-.2.1s-.1-.1-.2-.1l-3.1-10.5-.2-.7v-.2s0-.1-.1-.1h0c-.4-.7-1.2-1.1-2-.8-.9.3-1.4,1.2-1.2,2.1l.2.7,1.5,5.2.2.7,1.2,4.2c.5,1.6,1.9,2.7,3.6,2.7,1.6,0,3-1,3.5-2.4h0l1.3-4.5.2-.7,1.5-5.2.2-.7c.5-.9,0-1.9-1-2.1h0ZM245.9,20.02c1.2,0,2.2.2,3,.7s1.3,1.2,1.6,2c.3.9.3,2,.1,3.2l-1.5,7.7h-1.8l1.6-7.7c.3-1.3.1-2.4-.4-3.1s-1.5-1.1-2.9-1.1-2.5.4-3.4,1.1-1.5,1.9-1.8,3.4l-1.5,7.5h-1.8l1.6-7.7c.3-1.3.1-2.4-.4-3.1s-1.5-1.1-2.8-1.1-2.6.4-3.5,1.2-1.5,2-1.9,3.6l-1.4,7.3h-1.8l2.7-13.5h1.8l-.8,3.9-.4-.7c.6-1.2,1.5-2,2.5-2.5s2.1-.8,3.4-.8c.9,0,1.8.2,2.4.5.7.3,1.2.8,1.6,1.4.4.6.6,1.3.6,2.2l-.9-.2c.7-1.3,1.6-2.2,2.7-2.9s2-1.3,3.4-1.3h0ZM254.3,25.23l.2-.9,5.7-4.1c.6-.5,1.1-.9,1.4-1.2.3-.3.5-.6.7-.9.1-.3.2-.6.2-.9,0-.5-.2-.9-.7-1.2-.4-.3-1.1-.4-1.9-.4-.7,0-1.3.1-1.9.3s-1.1.5-1.5.9l-.8-.8c.5-.5,1.1-.9,1.9-1.2.8-.3,1.6-.4,2.5-.4,1.2,0,2.1.2,2.8.8.6.5,1,1.2,1,2,0,.4-.1.8-.2,1.1s-.4.8-.8,1.2-1,.9-1.7,1.4l-5.1,3.7-.4-.5h7.4l-.2,1.2h-8.6v-.1ZM265.1,33.73l3.8-19.1h1.8l-1.9,9.5-.8,2.7-.3,2.6-.9,4.3h-1.7ZM272.6,33.82c-1.2,0-2.2-.2-3-.6-.8-.4-1.5-1-1.9-1.8s-.7-1.8-.7-2.9c0-1.2.2-2.4.5-3.4s.8-1.9,1.5-2.7,1.4-1.3,2.3-1.7,1.9-.6,3-.6,2.2.2,3.1.7,1.6,1.1,2.1,2,.8,1.9.8,3.1-.2,2.2-.6,3.2-.9,1.8-1.6,2.5-1.5,1.3-2.4,1.7c-.9.3-2,.5-3.1.5h0ZM272.6,32.23c1.1,0,2.1-.3,3-.8s1.6-1.3,2.1-2.3.8-2,.8-3.3-.4-2.4-1.2-3.1c-.8-.7-1.9-1.1-3.3-1.1-1.1,0-2.1.3-3,.8s-1.6,1.3-2.1,2.3-.8,2-.8,3.3.4,2.4,1.2,3.1,1.9,1.1,3.3,1.1h0Z"/><circle class="cls-1" cx="214.7" cy="26.23" r="1.7"/></g></svg>