<?xml version="1.0" encoding="utf-8"?>
<!-- Generator: Adobe Illustrator 28.2.0, SVG Export Plug-In . SVG Version: 6.00 Build 0)  -->
<svg version="1.1" id="Layer_2_00000072959280386853548720000016964769498781014951_"
	 xmlns="http://www.w3.org/2000/svg" xmlns:xlink="http://www.w3.org/1999/xlink" x="0px" y="0px" viewBox="0 0 282.4 52.5"
	 style="enable-background:new 0 0 282.4 52.5;" xml:space="preserve">
<style type="text/css">
	.st0{fill:#FFFFFF;}
</style>
<g id="Camada_1">
	<path class="st0" d="M9.2,27.3l13.9,8v-8.5l-8-4.6l-5.8,3.4c-0.5,0.3-0.7,0.9-0.4,1.4C8.9,27,9.1,27.2,9.2,27.3z M38.5,25.5
		l-5.8-3.4l-8,4.6v8.5l13.9-8c0.5-0.3,0.7-0.9,0.4-1.4C38.8,25.7,38.7,25.6,38.5,25.5z M23.1,17.5l-6.5,3.7l7.2,4.2l7.2-4.2
		l-6.5-3.7C24.2,17.2,23.6,17.2,23.1,17.5z"/>
	<path class="st0" d="M43.6,10.1L28,1.1c-2.6-1.5-5.7-1.5-8.3,0l-15.6,9C1.6,11.6,0,14.3,0,17.3v17.9c0,3,1.6,5.7,4.1,7.2l15.6,9
		c1.3,0.7,2.7,1.1,4.1,1.1s2.9-0.4,4.1-1.1l15.6-9c2.6-1.5,4.1-4.2,4.1-7.2v-18C47.7,14.3,46.1,11.6,43.6,10.1L43.6,10.1z M23.1,51
		c-0.9-0.1-1.8-0.4-2.6-0.9l-15.6-9c-2.1-1.2-3.4-3.5-3.4-5.9v-18c0-0.9,0.2-1.8,0.5-2.7l21.1,12.2L23.1,51L23.1,51z M24.6,35.2
		c-0.5,0.3-1.1,0.3-1.5,0v-8.5l-8-4.6l1.5-0.9l-13.8-8c0.5-0.8,1.3-1.4,2.1-1.9l15.6-9c1-0.6,2.2-0.9,3.4-0.9s2.4,0.3,3.4,0.9
		l15.6,9c0.8,0.5,1.5,1.1,2.1,1.9l-13.8,8l1.5,0.9l-8,4.6L24.6,35.2L24.6,35.2z M46.3,35.2c0,2.4-1.3,4.7-3.4,5.9l-15.6,9
		c-0.8,0.5-1.7,0.8-2.7,0.9V26.8l21.1-12.2c0.3,0.8,0.5,1.7,0.5,2.7L46.3,35.2L46.3,35.2z M152,27.3v-1.9h0c0-0.3,0-0.6,0-0.9V24
		c-0.1-5.1-1.1-6-6.4-6s-0.1,0-0.1,0h-5.5c-0.9,0-1.6,0.7-1.6,1.6s0.7,1.6,1.6,1.6h5.4c2.7,0,3.2,0.4,3.2,3v0.2h-8.6
		c-0.9,0.1-1.6,0.8-1.6,1.7v0.3c0,0.3,0,0.6,0,0.9v0.4c0.1,5.1,1.1,6,6.5,6h0.5c5.4,0,6.4-0.9,6.5-6V27.3L152,27.3z M148.6,27.6
		c-0.1,2.5-0.6,3-3.2,3h-0.3c-2.7,0-3.2-0.4-3.2-3v-0.2h6.8L148.6,27.6L148.6,27.6z M204.7,25.3c0-0.3,0-0.6,0-0.9V24
		c-0.1-5.1-1.1-6-6.4-6s-0.1,0-0.1,0h-5.5c-0.9,0-1.6,0.7-1.6,1.6s0.7,1.6,1.6,1.6h5.4c2.7,0,3.2,0.4,3.2,3v0.2h-8.6
		c-0.9,0.1-1.6,0.8-1.6,1.7v0.3c0,0.3,0,0.6,0,0.9v0.4c0.1,5.1,1.1,6,6.5,6h0.5c5.4,0,6.4-0.9,6.5-6L204.7,25.3L204.7,25.3
		L204.7,25.3z M201.2,27.6c-0.1,2.5-0.6,3-3.2,3h-0.3c-2.7,0-3.2-0.4-3.2-3v-0.2h6.8L201.2,27.6L201.2,27.6z M133.4,18h-2.1
		c-5.4,0-6.4,0.9-6.5,6v0.4c0,0.3,0,0.6,0,0.9s0,0.5,0,0.5v6.3c0.1,0.9,0.8,1.6,1.7,1.6s1.6-0.7,1.7-1.6v-6.3c0-0.6,0-1.2,0-1.7
		c0.1-2.5,0.6-3,3.2-3h2c0.9,0,1.6-0.7,1.6-1.6S134.2,18,133.4,18L133.4,18z M163.8,19.6c0-0.9-0.7-1.6-1.6-1.6H162
		c-1.3,0-2.3,0.1-3.1,0.2v-1.9c0-0.9-0.8-1.7-1.7-1.7s-1.7,0.8-1.7,1.7V32c0,0.9,0.8,1.7,1.7,1.7s1.7-0.8,1.7-1.7v-6.1
		c0-0.6,0-1.2,0-1.7c0.1-2.5,0.6-3,3.2-3h0.1C163.1,21.1,163.8,20.4,163.8,19.6L163.8,19.6z M168.9,33.7c0.9,0,1.6-0.7,1.7-1.6V19.7
		c0-0.9-0.8-1.7-1.7-1.7s-1.7,0.8-1.7,1.7v12.4C167.3,33,168,33.7,168.9,33.7z M70.2,27.7v-0.4c0-0.3,0-0.6,0-0.8v-1.1
		c0-0.6-0.6-1-1.2-1h-4c-0.9,0-1.6,0.7-1.6,1.6s0.7,1.6,1.6,1.6h1.8v0.2c-0.1,2.5-0.6,3-3.2,3h-0.3c-2.7,0-3.2-0.4-3.2-3l0-1.7
		c0-0.6,0-1.2,0-1.7c0-2.5,0.5-3,3.2-3h5.4c0.9,0,1.6-0.7,1.6-1.6S69.5,18,68.6,18h-5.5c-5.4,0-6.4,0.9-6.5,6v2.3h0
		c0,0.3,0,0.6,0,0.9v0.4c0.1,5.1,1.1,6,6.5,6h0.5C69.1,33.7,70.1,32.8,70.2,27.7L70.2,27.7z M104.3,32.1v-6.8c0-0.3,0-0.6,0-0.9V24
		c-0.1-5.1-1.1-6-6.5-6h-0.5c-5.4,0-6.4,0.9-6.5,6v0.4c0,0.3,0,0.6,0,0.9s0,0.5,0,0.5v6.3c0.1,0.9,0.8,1.6,1.7,1.6S94,33,94,32.1
		v-6.3c0-0.6,0-1.2,0-1.7c0.1-2.5,0.6-3,3.2-3h0.3c2.7,0,3.2,0.4,3.2,3l0,1.7v6.3c0.1,0.9,0.8,1.6,1.7,1.6S104.2,33,104.3,32.1
		L104.3,32.1z M82.1,33.7h3.5c0.9,0,1.6-0.7,1.6-1.6s-0.7-1.6-1.6-1.6h-5.4c-2.7,0-3.2-0.5-3.2-3v-0.2h8.6c0.9,0,1.6-0.7,1.6-1.6
		v-0.5c0-0.3,0-0.6,0-0.9V24c-0.1-5.1-1.1-6-6.5-6h-0.5c-5.4,0-6.4,0.9-6.5,6v2.3h0c0,0.3,0,0.6,0,0.9v0.4c0.1,5,1.1,6,6.2,6
		s0.1,0,0.1,0L82.1,33.7L82.1,33.7z M77,24.1c0.1-2.5,0.6-3,3.2-3h0.3c2.7,0,3.2,0.4,3.2,3v0.2H77L77,24.1L77,24.1z M121.3,25.3
		c0-0.3,0-0.6,0-0.9V24c-0.1-5.1-1.1-6-6.5-6h-0.5c-5.4,0-6.4,0.9-6.5,6v2.3h0c0,0.3,0,0.6,0,0.9v0.4c0.1,5,1.1,6,6.2,6s0.1,0,0.1,0
		h5.7c0.9,0,1.6-0.7,1.6-1.6s-0.7-1.6-1.6-1.6h-5.4c-2.7,0-3.2-0.5-3.2-3v-0.2h8.6c0.9,0,1.6-0.7,1.6-1.6L121.3,25.3L121.3,25.3z
		 M111.1,24.3v-0.2c0.1-2.5,0.6-3,3.2-3h0.3c2.7,0,3.2,0.4,3.2,3v0.2H111.1L111.1,24.3z M186.4,18.1c-0.8-0.2-1.6,0.1-2,0.8v0
		c0,0,0,0.1-0.1,0.1c0,0,0,0,0,0.1s0,0.1,0,0.1l-0.2,0.7L181,30.4c0,0.1-0.1,0.1-0.2,0.1s-0.1-0.1-0.2-0.1l-3.1-10.5l-0.2-0.7l0-0.1
		c0,0,0,0,0-0.1c0,0,0-0.1-0.1-0.1v0c-0.4-0.7-1.2-1.1-2-0.8c-0.9,0.3-1.4,1.2-1.2,2.1l0.2,0.7l1.5,5.2l0.2,0.7l1.2,4.2
		c0.5,1.6,1.9,2.7,3.6,2.7c1.6,0,3-1,3.5-2.4h0l1.3-4.5l0.2-0.7l1.5-5.2l0.2-0.7C187.9,19.3,187.4,18.3,186.4,18.1L186.4,18.1z
		 M245.9,20c1.2,0,2.2,0.2,3,0.7s1.3,1.2,1.6,2c0.3,0.9,0.3,2,0.1,3.2l-1.5,7.7h-1.8l1.6-7.7c0.3-1.3,0.1-2.4-0.4-3.1
		s-1.5-1.1-2.9-1.1s-2.5,0.4-3.4,1.1s-1.5,1.9-1.8,3.4l-1.5,7.5h-1.8l1.6-7.7c0.3-1.3,0.1-2.4-0.4-3.1s-1.5-1.1-2.8-1.1
		s-2.6,0.4-3.5,1.2s-1.5,2-1.9,3.6l-1.4,7.3h-1.8l2.7-13.5h1.8l-0.8,3.9l-0.4-0.7c0.6-1.2,1.5-2,2.5-2.5c1-0.5,2.1-0.8,3.4-0.8
		c0.9,0,1.8,0.2,2.4,0.5c0.7,0.3,1.2,0.8,1.6,1.4c0.4,0.6,0.6,1.3,0.6,2.2l-0.9-0.2c0.7-1.3,1.6-2.2,2.7-2.9S244.5,20,245.9,20
		L245.9,20z M254.3,25.2l0.2-0.9l5.7-4.1c0.6-0.5,1.1-0.9,1.4-1.2c0.3-0.3,0.5-0.6,0.7-0.9c0.1-0.3,0.2-0.6,0.2-0.9
		c0-0.5-0.2-0.9-0.7-1.2c-0.4-0.3-1.1-0.4-1.9-0.4c-0.7,0-1.3,0.1-1.9,0.3c-0.6,0.2-1.1,0.5-1.5,0.9l-0.8-0.8
		c0.5-0.5,1.1-0.9,1.9-1.2c0.8-0.3,1.6-0.4,2.5-0.4c1.2,0,2.1,0.2,2.8,0.8c0.6,0.5,1,1.2,1,2c0,0.4-0.1,0.8-0.2,1.1
		s-0.4,0.8-0.8,1.2s-1,0.9-1.7,1.4l-5.1,3.7l-0.4-0.5h7.4l-0.2,1.2H254.3L254.3,25.2z M265.1,33.7l3.8-19.1h1.8l-1.9,9.5l-0.8,2.7
		l-0.3,2.6l-0.9,4.3L265.1,33.7L265.1,33.7z M272.6,33.8c-1.2,0-2.2-0.2-3-0.6c-0.8-0.4-1.5-1-1.9-1.8c-0.4-0.8-0.7-1.8-0.7-2.9
		c0-1.2,0.2-2.4,0.5-3.4c0.3-1,0.8-1.9,1.5-2.7s1.4-1.3,2.3-1.7s1.9-0.6,3-0.6s2.2,0.2,3.1,0.7c0.9,0.5,1.6,1.1,2.1,2
		s0.8,1.9,0.8,3.1s-0.2,2.2-0.6,3.2s-0.9,1.8-1.6,2.5c-0.7,0.7-1.5,1.3-2.4,1.7C274.8,33.6,273.7,33.8,272.6,33.8L272.6,33.8z
		 M272.6,32.2c1.1,0,2.1-0.3,3-0.8c0.9-0.5,1.6-1.3,2.1-2.3c0.5-1,0.8-2,0.8-3.3c0-1.3-0.4-2.4-1.2-3.1c-0.8-0.7-1.9-1.1-3.3-1.1
		c-1.1,0-2.1,0.3-3,0.8s-1.6,1.3-2.1,2.3s-0.8,2-0.8,3.3c0,1.3,0.4,2.4,1.2,3.1S271.2,32.2,272.6,32.2L272.6,32.2z"/>
	<circle class="st0" cx="214.7" cy="26.2" r="1.7"/>
</g>
</svg>
