<?xml version="1.0" encoding="utf-8"?>
<!-- Generator: Adobe Illustrator 28.2.0, SVG Export Plug-In . SVG Version: 6.00 Build 0)  -->
<svg version="1.1" id="Layer_1" xmlns="http://www.w3.org/2000/svg" xmlns:xlink="http://www.w3.org/1999/xlink" x="0px" y="0px"
	 viewBox="0 0 257.6 283.3" style="enable-background:new 0 0 257.6 283.3;" xml:space="preserve">
<style type="text/css">
	.st0{fill:#2E286D;}
</style>
<g>
	<g>
		<path class="st0" d="M257.6,141.8c0,16.2,0.1,32.3,0,48.5c-0.1,16.6-7.4,29.6-21.6,38c-28.1,16.6-56.4,32.9-84.9,49
			c-14.5,8.2-29.6,8.1-44.1-0.1c-28.3-16-56.5-32.2-84.5-48.7c-14.7-8.6-22-22-22.1-39c-0.2-31.8-0.2-63.7,0-95.5
			c0.1-17.4,7.8-30.9,23-39.7c27.6-16,55.2-31.9,82.9-47.7c15.4-8.8,30.9-8.7,46.3,0.1c27.4,15.7,54.7,31.5,82,47.3
			c15.3,8.9,23.1,22.2,23.2,40C257.6,109.9,257.6,125.8,257.6,141.8z M125.1,190.3c2.7,1.4,5.4,1.3,8.1-0.1c0,28.1,0,56.3,0,84.7
			c1.2-0.1,2.2-0.1,3-0.4c3.9-1.4,8-2.4,11.6-4.4c28-16,55.9-32,83.7-48.3c12.1-7.1,18.3-18,18.4-32.1c0.1-27.4,0-54.9,0-82.3
			c0-5.1,0.1-10.2,0-15.4c-0.1-4.6-1-9-3-13.3c-23.5,13.6-46.8,27-70.4,40.6c1.1,0.7,1.8,1.1,2.5,1.6c9.3,5.4,18.5,10.7,27.8,16.1
			c5.3,3,5.3,7.9,0.1,10.9c-16.5,9.5-32.9,19-49.4,28.5c-8.1,4.7-16.2,9.3-24.3,13.9c0-1,0.1-1.9,0.1-2.9c0-13.6,0-27.2,0-40.8
			c0-1.7,0.4-2.7,2-3.6c9.4-5.3,18.7-10.7,28-16.1c4.3-2.5,8.5-4.9,13.2-7.6c-2.9-1.7-5.3-3.1-8.1-4.8c25-14.5,49.7-28.7,74.5-43
			c-3.3-4.6-7.2-7.9-11.8-10.5c-27.5-15.8-55-31.7-82.4-47.6c-13-7.5-25.9-7.4-38.9,0C82.2,29.3,54.7,45.1,27.3,61
			c-2.6,1.5-5,3.4-7.4,5.3c-1.7,1.4-3.1,3.3-4.7,5.2c25,14.5,49.6,28.7,74.5,43c-2.8,1.7-5.2,3.2-7.9,4.8c1,0.6,1.7,1.1,2.4,1.5
			c12.9,7.4,25.7,14.9,38.6,22.2c1.6,0.9,2.1,1.9,2.1,3.8c-0.1,13.6,0,27.2,0,40.8C124.9,188.5,125,189.5,125.1,190.3
			c-0.1,0-0.3,0-0.4-0.1c-24.8-14.3-49.7-28.6-74.5-43c-4-2.3-3.9-7.3,0.1-9.7c3.6-2.2,7.2-4.2,10.8-6.2c6.7-3.9,13.4-7.7,20.5-11.8
			C58,105.9,34.7,92.4,11.2,78.9c-2.1,4.9-3,9.7-3,14.7c0,32.1-0.1,64.3,0,96.4c0.1,14.1,6.4,25,18.5,32
			c27.8,16.2,55.8,32.2,83.7,48.2c2.5,1.5,5.3,2.6,8.1,3.6c1.9,0.7,4.1,0.9,6.4,1.4c0-1.6,0-2.6,0-3.6c0-26,0-52,0-78
			C124.9,192.4,125,191.4,125.1,190.3z"/>
		<path class="st0" d="M90,114.6c13,7.5,25.5,14.7,38.1,21.9c0.6,0.3,1.8,0.1,2.5-0.3c5.7-3.2,11.4-6.5,17-9.8
			c6.7-3.9,13.4-7.7,20.3-11.7c-0.5-0.4-0.8-0.7-1.1-0.9c-11.2-6.5-22.4-13-33.6-19.4c-2.9-1.6-5.8-1.5-8.7,0.2
			c-6.2,3.6-12.4,7.2-18.7,10.8C100.7,108.4,95.5,111.4,90,114.6z"/>
		<path class="st0" d="M90,114.6c5.5-3.2,10.7-6.2,15.9-9.2c6.2-3.6,12.4-7.2,18.7-10.8c2.9-1.6,5.8-1.8,8.7-0.2
			c11.2,6.4,22.4,12.9,33.6,19.4c0.3,0.2,0.6,0.5,1.1,0.9c-6.9,4-13.6,7.9-20.3,11.7c-5.7,3.3-11.3,6.6-17,9.8
			c-0.7,0.4-1.9,0.6-2.5,0.3C115.5,129.3,103,122,90,114.6z"/>
	</g>
</g>
</svg>
