<?xml version="1.0" encoding="UTF-8"?><svg id="Layer_1" xmlns="http://www.w3.org/2000/svg" width="257.55" height="283.35" viewBox="0 0 257.55 283.35"><defs><style>.cls-1{fill:#2e286d;stroke-width:0px;}</style></defs><path class="cls-1" d="M257.35,141.75c0,16.2.1,32.3,0,48.5-.1,16.6-7.4,29.6-21.6,38-28.1,16.6-56.4,32.9-84.9,49-14.5,8.2-29.6,8.1-44.1-.1-28.3-16-56.5-32.2-84.5-48.7C7.55,219.85.25,206.45.15,189.45-.05,157.65-.05,125.75.15,93.95c.1-17.4,7.8-30.9,23-39.7,27.6-16,55.2-31.9,82.9-47.7,15.4-8.8,30.9-8.7,46.3.1,27.4,15.7,54.7,31.5,82,47.3,15.3,8.9,23.1,22.2,23.2,40-.2,15.9-.2,31.8-.2,47.8ZM124.85,190.25c2.7,1.4,5.4,1.3,8.1-.1v84.7c1.2-.1,2.2-.1,3-.4,3.9-1.4,8-2.4,11.6-4.4,28-16,55.9-32,83.7-48.3,12.1-7.1,18.3-18,18.4-32.1.1-27.4,0-54.9,0-82.3,0-5.1.1-10.2,0-15.4-.1-4.6-1-9-3-13.3-23.5,13.6-46.8,27-70.4,40.6,1.1.7,1.8,1.1,2.5,1.6,9.3,5.4,18.5,10.7,27.8,16.1,5.3,3,5.3,7.9.1,10.9-16.5,9.5-32.9,19-49.4,28.5-8.1,4.7-16.2,9.3-24.3,13.9,0-1,.1-1.9.1-2.9v-40.8c0-1.7.4-2.7,2-3.6,9.4-5.3,18.7-10.7,28-16.1,4.3-2.5,8.5-4.9,13.2-7.6-2.9-1.7-5.3-3.1-8.1-4.8,25-14.5,49.7-28.7,74.5-43-3.3-4.6-7.2-7.9-11.8-10.5-27.5-15.8-55-31.7-82.4-47.6-13-7.5-25.9-7.4-38.9,0-27.6,15.9-55.1,31.7-82.5,47.6-2.6,1.5-5,3.4-7.4,5.3-1.7,1.4-3.1,3.3-4.7,5.2,25,14.5,49.6,28.7,74.5,43-2.8,1.7-5.2,3.2-7.9,4.8,1,.6,1.7,1.1,2.4,1.5,12.9,7.4,25.7,14.9,38.6,22.2,1.6.9,2.1,1.9,2.1,3.8-.1,13.6,0,27.2,0,40.8,0,.9.1,1.9.2,2.7-.1,0-.3,0-.4-.1-24.8-14.3-49.7-28.6-74.5-43-4-2.3-3.9-7.3.1-9.7,3.6-2.2,7.2-4.2,10.8-6.2,6.7-3.9,13.4-7.7,20.5-11.8-23.6-13.6-46.9-27.1-70.4-40.6-2.1,4.9-3,9.7-3,14.7,0,32.1-.1,64.3,0,96.4.1,14.1,6.4,25,18.5,32,27.8,16.2,55.8,32.2,83.7,48.2,2.5,1.5,5.3,2.6,8.1,3.6,1.9.7,4.1.9,6.4,1.4v-81.6c0-1.2.1-2.2.2-3.3Z"/><path class="cls-1" d="M89.75,114.55c13,7.5,25.5,14.7,38.1,21.9.6.3,1.8.1,2.5-.3,5.7-3.2,11.4-6.5,17-9.8,6.7-3.9,13.4-7.7,20.3-11.7-.5-.4-.8-.7-1.1-.9-11.2-6.5-22.4-13-33.6-19.4-2.9-1.6-5.8-1.5-8.7.2-6.2,3.6-12.4,7.2-18.7,10.8-5.1,3-10.3,6-15.8,9.2Z"/><path class="cls-1" d="M89.75,114.55c5.5-3.2,10.7-6.2,15.9-9.2,6.2-3.6,12.4-7.2,18.7-10.8,2.9-1.6,5.8-1.8,8.7-.2,11.2,6.4,22.4,12.9,33.6,19.4.3.2.6.5,1.1.9-6.9,4-13.6,7.9-20.3,11.7-5.7,3.3-11.3,6.6-17,9.8-.7.4-1.9.6-2.5.3-12.7-7.2-25.2-14.5-38.2-21.9Z"/></svg>