<?xml version="1.0" encoding="UTF-8"?>
<svg id="Layer_2" data-name="Layer 2" xmlns="http://www.w3.org/2000/svg" version="1.1" viewBox="0 0 87 86.9">
  <defs>
    <style>
      .cls-1 {
        fill: #000;
        stroke-width: 0px;
      }
    </style>
  </defs>
  <g id="Layer_1-2" data-name="Layer 1-2">
    <path class="cls-1" d="M43.1,86.9C19.1,87.1-.2,67.3,0,43.2.2,17.9,21.8-.7,44.4,0c23.4.7,42.5,19.3,42.6,44,.1,24.1-20.3,43.5-43.9,42.8ZM43.9,10.1C25.2,8.7,9.5,26.7,9.4,42.3c-.1,19.5,15,35.2,33.9,35.2,19.2,0,33.8-15.3,34.2-33.3.4-17.5-15.3-35.1-33.7-34.2h0Z"/>
    <path class="cls-1" d="M44,30.5c7,.1,13.4,6.7,13.2,13.5-.2,6.7-7.2,13.2-14,12.9-7-.3-13.3-6.9-13.1-13.8.2-7,6.6-12.8,14-12.7Z"/>
  </g>
</svg>