<?xml version="1.0" encoding="UTF-8"?>
<svg id="Layer_2" data-name="Layer 2" xmlns="http://www.w3.org/2000/svg" version="1.1" viewBox="0 0 87 86.9">
  <defs>
    <style>
      .cls-1 {
        fill: #000;
        stroke-width: 0px;
      }
    </style>
  </defs>
  <g id="Layer_2-2" data-name="Layer 2-2">
    <g id="Layer_1-2" data-name="Layer 1-2">
      <path class="cls-1" d="M75.8,76.6c-10.1-1.7-22.1-3.6-34.1-5.7-10.9-1.9-21.7-4.1-32.7-5.8-6-1-8.4-4.4-5.7-10.5,6.1-14,12.7-27.8,18.6-41.9,1.8-4.2,4.3-4.9,7.8-4.1,6,1.6,12.1,3.2,18.1,5,4.6,1.4,9.1,3.4,13.8,4.2,7.2,1.3,9.1,7.2,10.9,13.5,3.2,10.9,6.4,21.8,9.6,32.9.5,1.7.9,3.4,1.1,5.1.8,5.7-.6,7.3-7.5,7.1h0s0,.1,0,.1ZM73.1,63.6c-.5-2.7-.6-4-1-5.1-2.3-7.9-4.5-15.8-7.1-23.7-.9-2.5-2.4-6-4.2-6.5-9.7-3.3-19.7-6-29.6-8.6-1.1-.3-3.5.6-4,1.7-4.8,10.4-9.4,20.9-13.9,31.4-1.3,2.9,0,4.3,2.6,4.7,17.7,2.8,35.3,5.6,53.1,8.2,1.3.2,2.9-1.4,4.1-2h0c0-.1,0-.1,0-.1Z"/>
    </g>
  </g>
</svg>